<svg width="1676" height="1057" xmlns="http://www.w3.org/2000/svg" xmlns:xlink="http://www.w3.org/1999/xlink" overflow="hidden"><defs><filter id="fx0" x="-10%" y="-10%" width="120%" height="120%" filterUnits="userSpaceOnUse" primitiveUnits="userSpaceOnUse"><feComponentTransfer color-interpolation-filters="sRGB"><feFuncR type="discrete" tableValues="0 0"/><feFuncG type="discrete" tableValues="0 0"/><feFuncB type="discrete" tableValues="0 0"/><feFuncA type="linear" slope="0.631373" intercept="0"/></feComponentTransfer><feGaussianBlur stdDeviation="6.875 6.875"/></filter><filter id="fx1" x="-10%" y="-10%" width="120%" height="120%" filterUnits="userSpaceOnUse" primitiveUnits="userSpaceOnUse"><feComponentTransfer color-interpolation-filters="sRGB"><feFuncR type="discrete" tableValues="0 0"/><feFuncG type="discrete" tableValues="0 0"/><feFuncB type="discrete" tableValues="0 0"/><feFuncA type="linear" slope="0.631373" intercept="0"/></feComponentTransfer><feGaussianBlur stdDeviation="6.875 6.875"/></filter><filter id="fx2" x="-10%" y="-10%" width="120%" height="120%" filterUnits="userSpaceOnUse" primitiveUnits="userSpaceOnUse"><feComponentTransfer color-interpolation-filters="sRGB"><feFuncR type="discrete" tableValues="0 0"/><feFuncG type="discrete" tableValues="0 0"/><feFuncB type="discrete" tableValues="0 0"/><feFuncA type="linear" slope="0.631373" intercept="0"/></feComponentTransfer><feGaussianBlur stdDeviation="6.875 6.875"/></filter><filter id="fx3" x="-10%" y="-10%" width="120%" height="120%" filterUnits="userSpaceOnUse" primitiveUnits="userSpaceOnUse"><feComponentTransfer color-interpolation-filters="sRGB"><feFuncR type="discrete" tableValues="0 0"/><feFuncG type="discrete" tableValues="0 0"/><feFuncB type="discrete" tableValues="0 0"/><feFuncA type="linear" slope="0.631373" intercept="0"/></feComponentTransfer><feGaussianBlur stdDeviation="6.875 6.875"/></filter><filter id="fx4" x="-10%" y="-10%" width="120%" height="120%" filterUnits="userSpaceOnUse" primitiveUnits="userSpaceOnUse"><feComponentTransfer color-interpolation-filters="sRGB"><feFuncR type="discrete" tableValues="0 0"/><feFuncG type="discrete" tableValues="0 0"/><feFuncB type="discrete" tableValues="0 0"/><feFuncA type="linear" slope="0.631373" intercept="0"/></feComponentTransfer><feGaussianBlur stdDeviation="6.875 6.875"/></filter><filter id="fx5" x="-10%" y="-10%" width="120%" height="120%" filterUnits="userSpaceOnUse" primitiveUnits="userSpaceOnUse"><feComponentTransfer color-interpolation-filters="sRGB"><feFuncR type="discrete" tableValues="0 0"/><feFuncG type="discrete" tableValues="0 0"/><feFuncB type="discrete" tableValues="0 0"/><feFuncA type="linear" slope="0.631373" intercept="0"/></feComponentTransfer><feGaussianBlur stdDeviation="6.875 6.875"/></filter><filter id="fx6" x="-10%" y="-10%" width="120%" height="120%" filterUnits="userSpaceOnUse" primitiveUnits="userSpaceOnUse"><feComponentTransfer color-interpolation-filters="sRGB"><feFuncR type="discrete" tableValues="0 0"/><feFuncG type="discrete" tableValues="0 0"/><feFuncB type="discrete" tableValues="0 0"/><feFuncA type="linear" slope="0.631373" intercept="0"/></feComponentTransfer><feGaussianBlur stdDeviation="6.875 6.875"/></filter><filter id="fx7" x="-10%" y="-10%" width="120%" height="120%" filterUnits="userSpaceOnUse" primitiveUnits="userSpaceOnUse"><feComponentTransfer color-interpolation-filters="sRGB"><feFuncR type="discrete" tableValues="0 0"/><feFuncG type="discrete" tableValues="0 0"/><feFuncB type="discrete" tableValues="0 0"/><feFuncA type="linear" slope="0.631373" intercept="0"/></feComponentTransfer><feGaussianBlur stdDeviation="6.875 6.875"/></filter><clipPath id="clip8"><rect x="1823" y="943" width="1676" height="1057"/></clipPath><clipPath id="clip9"><rect x="-3" y="-3" width="435" height="243"/></clipPath><clipPath id="clip10"><rect x="0" y="0" width="430" height="237"/></clipPath><clipPath id="clip11"><rect x="45" y="41" width="420" height="104"/></clipPath><clipPath id="clip12"><rect x="0" y="0" width="515" height="211"/></clipPath><linearGradient x1="2612" y1="957" x2="2612" y2="1150" gradientUnits="userSpaceOnUse" spreadMethod="reflect" id="fill13"><stop offset="0" stop-color="#5A79BC"/><stop offset="0.5" stop-color="#3765B7"/><stop offset="1" stop-color="#2A57A7"/></linearGradient><clipPath id="clip14"><rect x="-3" y="-3" width="435" height="243"/></clipPath><clipPath id="clip15"><rect x="0" y="0" width="430" height="237"/></clipPath><clipPath id="clip16"><rect x="45" y="41" width="391" height="104"/></clipPath><clipPath id="clip17"><rect x="0" y="0" width="482" height="210"/></clipPath><linearGradient x1="2612" y1="1231" x2="2612" y2="1424" gradientUnits="userSpaceOnUse" spreadMethod="reflect" id="fill18"><stop offset="0" stop-color="#6485CC"/><stop offset="0.5" stop-color="#4373CB"/><stop offset="1" stop-color="#3463BB"/></linearGradient><clipPath id="clip19"><rect x="-3" y="-3" width="435" height="243"/></clipPath><clipPath id="clip20"><rect x="0" y="0" width="430" height="237"/></clipPath><clipPath id="clip21"><rect x="45" y="41" width="405" height="104"/></clipPath><clipPath id="clip22"><rect x="0" y="0" width="500" height="210"/></clipPath><linearGradient x1="2709" y1="1505" x2="2709" y2="1698" gradientUnits="userSpaceOnUse" spreadMethod="reflect" id="fill23"><stop offset="0" stop-color="#96A8D7"/><stop offset="0.5" stop-color="#849BD5"/><stop offset="1" stop-color="#7087C2"/></linearGradient><clipPath id="clip24"><rect x="-3" y="-3" width="435" height="243"/></clipPath><clipPath id="clip25"><rect x="0" y="0" width="430" height="237"/></clipPath><clipPath id="clip26"><rect x="45" y="41" width="376" height="118"/></clipPath><clipPath id="clip27"><rect x="0" y="0" width="470" height="210"/></clipPath><linearGradient x1="2709" y1="1779" x2="2709" y2="1972" gradientUnits="userSpaceOnUse" spreadMethod="reflect" id="fill28"><stop offset="0" stop-color="#96A8D7"/><stop offset="0.5" stop-color="#849BD5"/><stop offset="1" stop-color="#7087C2"/></linearGradient></defs><g clip-path="url(#clip8)" transform="translate(-1823 -943)"><path d="M2455.5 1416.5 2343.38 1416.5C2323.56 1416.5 2307.5 1400.44 2307.5 1380.63L2307.5 1380.63C2307.5 1360.81 2323.56 1344.75 2343.38 1344.75L2398 1344.75 2398 1334.5 2418.5 1355 2398 1375.5 2398 1365.25 2343.38 1365.25C2334.88 1365.25 2328 1372.13 2328 1380.63L2328 1380.63C2328 1389.12 2334.88 1396 2343.38 1396L2455.5 1396Z" stroke="#2F528F" stroke-width="4.58333" stroke-miterlimit="8" fill="#4472C4" fill-rule="evenodd"/><path d="M2458.5 1424.5 2458.5 1876.3 2516.42 1876.3" stroke="#889CD2" stroke-width="4.58333" stroke-miterlimit="8" fill="none" fill-rule="evenodd"/><path d="M2458.5 1424.5 2458.5 1602.13 2516.42 1602.13" stroke="#889CD2" stroke-width="4.58333" stroke-miterlimit="8" fill="none" fill-rule="evenodd"/><path d="M2613 1150.5 2613 1231.59" stroke="#4975C5" stroke-width="4.58333" stroke-miterlimit="8" fill="none" fill-rule="evenodd"/><g clip-path="url(#clip9)" filter="url(#fx0)" transform="translate(2397 942)"><g clip-path="url(#clip10)"><rect x="22" y="21.875" width="386" height="193" fill="#FF0000"/></g></g><g clip-path="url(#clip11)" filter="url(#fx1)" transform="translate(2355 962)"><g clip-path="url(#clip12)"><path d="M43.4561-2.32324C43.6592-1.76465 43.7671-1.31396 43.7798-0.971191 43.7925-0.628418 43.6973-0.368164 43.4941-0.19043 43.291-0.0126953 42.9546 0.101562 42.4849 0.152344 42.0151 0.203125 41.3867 0.228516 40.5996 0.228516 39.8125 0.228516 39.1841 0.209473 38.7144 0.171387 38.2446 0.133301 37.8892 0.0698242 37.6479-0.019043 37.4067-0.10791 37.229-0.228516 37.1147-0.380859 37.0005-0.533203 36.8926-0.723633 36.791-0.952148L32.5635-12.9492 12.0732-12.9492 8.03613-1.10449C7.95996-0.875976 7.8584-0.679199 7.73144-0.51416 7.60449-0.349121 7.42041-0.209473 7.1792-0.0952148 6.93799 0.019043 6.59521 0.101562 6.15088 0.152344 5.70654 0.203125 5.12891 0.228516 4.41797 0.228516 3.68164 0.228516 3.07861 0.196777 2.60889 0.133301 2.13916 0.0698242 1.80908-0.0507812 1.61865-0.228516 1.42822-0.40625 1.33936-0.666504 1.35205-1.00928 1.36475-1.35205 1.47266-1.80273 1.67578-2.36133L18.2051-48.1406C18.3066-48.4199 18.4399-48.6484 18.605-48.8262 18.77-49.0039 19.0112-49.1436 19.3286-49.2451 19.646-49.3467 20.0522-49.4165 20.5474-49.4546 21.0425-49.4927 21.6709-49.5117 22.4326-49.5117 23.2451-49.5117 23.918-49.4927 24.4512-49.4546 24.9844-49.4165 25.416-49.3467 25.7461-49.2451 26.0762-49.1436 26.3301-48.9976 26.5078-48.8071 26.6855-48.6167 26.8252-48.3818 26.9268-48.1025ZM22.2422-42.7324 22.2041-42.7324 13.7109-18.167 30.8496-18.167ZM77.5263-46.4648C77.5263-45.9824 77.5009-45.5635 77.4501-45.208 77.3993-44.8525 77.3105-44.5669 77.1835-44.3511 77.0566-44.1353 76.9106-43.9766 76.7455-43.875 76.5805-43.7734 76.4091-43.7227 76.2314-43.7227L58.1786-43.7227 58.1786-26.9648 75.2411-26.9648C75.4189-26.9648 75.5903-26.9204 75.7553-26.8315 75.9203-26.7427 76.0663-26.5967 76.1933-26.3936 76.3202-26.1904 76.4091-25.9175 76.4599-25.5747 76.5107-25.2319 76.5361-24.7939 76.5361-24.2607 76.5361-23.7783 76.5107-23.3657 76.4599-23.0229 76.4091-22.6802 76.3202-22.4009 76.1933-22.1851 76.0663-21.9692 75.9203-21.8042 75.7553-21.6899 75.5903-21.5757 75.4189-21.5186 75.2411-21.5186L58.1786-21.5186 58.1786-0.990234C58.1786-0.8125 58.1279-0.641113 58.0263-0.476074 57.9247-0.311035 57.747-0.184082 57.4931-0.0952148 57.2392-0.00634766 56.9091 0.0698242 56.5029 0.133301 56.0966 0.196777 55.5634 0.228516 54.9033 0.228516 54.2939 0.228516 53.7734 0.196777 53.3417 0.133301 52.9101 0.0698242 52.5673-0.00634766 52.3134-0.0952148 52.0595-0.184082 51.8818-0.311035 51.7802-0.476074 51.6786-0.641113 51.6279-0.8125 51.6279-0.990234L51.6279-46.6172C51.6279-47.6074 51.8881-48.2993 52.4086-48.6929 52.9291-49.0864 53.4814-49.2832 54.0654-49.2832L76.2314-49.2832C76.4091-49.2832 76.5805-49.2324 76.7455-49.1309 76.9106-49.0293 77.0566-48.8643 77.1835-48.6357 77.3105-48.4072 77.3993-48.1089 77.4501-47.7407 77.5009-47.3726 77.5263-46.9473 77.5263-46.4648ZM125.319-25.3652C125.319-21.0996 124.773-17.3735 123.682-14.187 122.59-11.0005 120.996-8.35986 118.902-6.26514 116.807-4.17041 114.236-2.60254 111.189-1.56152 108.142-0.520508 104.512 0 100.297 0L89.8612 0C89.2772 0 88.725-0.196777 88.2045-0.590332 87.6839-0.983887 87.4237-1.67578 87.4237-2.66602L87.4237-46.6172C87.4237-47.6074 87.6839-48.2993 88.2045-48.6929 88.725-49.0864 89.2772-49.2832 89.8612-49.2832L101.02-49.2832C105.286-49.2832 108.891-48.731 111.837-47.6265 114.782-46.522 117.251-44.9351 119.244-42.8657 121.238-40.7964 122.748-38.2891 123.777-35.3437 124.805-32.3984 125.319-29.0723 125.319-25.3652ZM118.426-25.0986C118.426-27.7646 118.096-30.2466 117.435-32.5444 116.775-34.8423 115.741-36.8291 114.331-38.5049 112.922-40.1807 111.139-41.4883 108.98-42.4277 106.822-43.3672 104.042-43.8369 100.64-43.8369L93.9745-43.8369 93.9745-5.48437 100.716-5.48437C103.864-5.48437 106.517-5.87793 108.676-6.66504 110.834-7.45215 112.637-8.6582 114.084-10.2832 115.531-11.9082 116.617-13.9458 117.34-16.396 118.064-18.8462 118.426-21.7471 118.426-25.0986ZM160.464-0.914062C160.464-0.609375 160.362-0.380859 160.159-0.228516 159.956-0.0761719 159.677 0.0380859 159.321 0.114258 158.966 0.19043 158.445 0.228516 157.76 0.228516 157.1 0.228516 156.573 0.19043 156.179 0.114258 155.786 0.0380859 155.5-0.0761719 155.322-0.228516 155.145-0.380859 155.056-0.609375 155.056-0.914062L155.056-4.3418C153.558-2.74219 151.888-1.49805 150.047-0.609375 148.207 0.279297 146.258 0.723633 144.201 0.723633 142.399 0.723633 140.767 0.488769 139.307 0.019043 137.847-0.450684 136.603-1.12988 135.575-2.01855 134.547-2.90723 133.747-3.99902 133.175-5.29394 132.604-6.58887 132.318-8.06152 132.318-9.71191 132.318-11.6416 132.712-13.3174 133.499-14.7393 134.286-16.1611 135.416-17.3418 136.889-18.2812 138.361-19.2207 140.164-19.9253 142.297-20.395 144.43-20.8647 146.829-21.0996 149.495-21.0996L154.218-21.0996 154.218-23.7656C154.218-25.0859 154.078-26.2539 153.799-27.2695 153.52-28.2852 153.069-29.1294 152.447-29.8022 151.825-30.4751 151.019-30.9829 150.028-31.3257 149.038-31.6685 147.819-31.8398 146.372-31.8398 144.823-31.8398 143.433-31.6558 142.202-31.2876 140.97-30.9194 139.891-30.5132 138.964-30.0688 138.038-29.6245 137.263-29.2183 136.641-28.8501 136.019-28.4819 135.556-28.2978 135.251-28.2978 135.048-28.2978 134.87-28.3486 134.718-28.4502 134.566-28.5518 134.432-28.7041 134.318-28.9072 134.204-29.1103 134.121-29.3706 134.07-29.688 134.02-30.0054 133.994-30.3545 133.994-30.7353 133.994-31.3701 134.039-31.8716 134.128-32.2397 134.216-32.6079 134.432-32.957 134.775-33.2871 135.118-33.6172 135.708-34.0044 136.546-34.4487 137.384-34.8931 138.349-35.2993 139.441-35.6675 140.532-36.0356 141.726-36.3403 143.021-36.5815 144.316-36.8228 145.623-36.9434 146.943-36.9434 149.406-36.9434 151.501-36.6641 153.228-36.1055 154.954-35.5469 156.351-34.728 157.417-33.6489 158.484-32.5698 159.258-31.2305 159.74-29.6309 160.223-28.0312 160.464-26.165 160.464-24.0322ZM154.218-16.5674 148.848-16.5674C147.121-16.5674 145.623-16.4214 144.354-16.1294 143.084-15.8374 142.03-15.4058 141.193-14.8345 140.355-14.2632 139.739-13.5776 139.345-12.7778 138.952-11.978 138.755-11.0576 138.755-10.0166 138.755-8.23926 139.32-6.82373 140.45-5.77002 141.58-4.71631 143.16-4.18945 145.192-4.18945 146.842-4.18945 148.372-4.6084 149.781-5.44629 151.19-6.28418 152.669-7.56641 154.218-9.29297ZM189.064-3.46582C189.064-2.72949 189.013-2.14551 188.912-1.71387 188.81-1.28223 188.658-0.964844 188.454-0.761719 188.251-0.558594 187.947-0.368164 187.54-0.19043 187.134-0.0126953 186.671 0.133301 186.15 0.247559 185.63 0.361816 185.078 0.457031 184.494 0.533203 183.91 0.609375 183.326 0.647461 182.742 0.647461 180.964 0.647461 179.441 0.412598 178.171-0.0571289 176.902-0.526855 175.861-1.23779 175.048-2.18994 174.236-3.14209 173.645-4.34814 173.277-5.8081 172.909-7.26807 172.725-8.98828 172.725-10.9687L172.725-31.0019 167.926-31.0019C167.545-31.0019 167.241-31.2051 167.012-31.6113 166.784-32.0176 166.669-32.6777 166.669-33.5918 166.669-34.0742 166.701-34.4805 166.765-34.8105 166.828-35.1406 166.911-35.4136 167.012-35.6294 167.114-35.8452 167.247-35.9976 167.412-36.0864 167.577-36.1753 167.761-36.2197 167.964-36.2197L172.725-36.2197 172.725-44.3701C172.725-44.5478 172.769-44.7129 172.858-44.8652 172.947-45.0176 173.112-45.1509 173.353-45.2651 173.595-45.3794 173.918-45.4619 174.325-45.5127 174.731-45.5635 175.239-45.5889 175.848-45.5889 176.483-45.5889 177.003-45.5635 177.41-45.5127 177.816-45.4619 178.133-45.3794 178.362-45.2651 178.59-45.1509 178.755-45.0176 178.857-44.8652 178.958-44.7129 179.009-44.5478 179.009-44.3701L179.009-36.2197 187.807-36.2197C188.01-36.2197 188.188-36.1753 188.34-36.0864 188.493-35.9976 188.626-35.8452 188.74-35.6294 188.854-35.4136 188.937-35.1406 188.988-34.8105 189.038-34.4805 189.064-34.0742 189.064-33.5918 189.064-32.6777 188.95-32.0176 188.721-31.6113 188.493-31.2051 188.188-31.0019 187.807-31.0019L179.009-31.0019 179.009-11.8828C179.009-9.52148 179.358-7.73779 180.057-6.53174 180.755-5.32568 182.005-4.72266 183.808-4.72266 184.392-4.72266 184.912-4.77978 185.37-4.89404 185.827-5.0083 186.233-5.12891 186.588-5.25586 186.944-5.38281 187.248-5.50342 187.502-5.61768 187.756-5.73193 187.985-5.78906 188.188-5.78906 188.315-5.78906 188.435-5.75732 188.55-5.69385 188.664-5.63037 188.753-5.50977 188.816-5.33203 188.88-5.1543 188.937-4.91309 188.988-4.6084 189.038-4.30371 189.064-3.92285 189.064-3.46582ZM222.201-0.914062C222.201-0.609375 222.1-0.380859 221.897-0.228516 221.694-0.0761719 221.414 0.0380859 221.059 0.114258 220.703 0.19043 220.183 0.228516 219.497 0.228516 218.837 0.228516 218.31 0.19043 217.917 0.114258 217.523 0.0380859 217.238-0.0761719 217.06-0.228516 216.882-0.380859 216.793-0.609375 216.793-0.914062L216.793-4.3418C215.295-2.74219 213.626-1.49805 211.785-0.609375 209.944 0.279297 207.995 0.723633 205.939 0.723633 204.136 0.723633 202.505 0.488769 201.045 0.019043 199.585-0.450684 198.341-1.12988 197.312-2.01855 196.284-2.90723 195.484-3.99902 194.913-5.29394 194.342-6.58887 194.056-8.06152 194.056-9.71191 194.056-11.6416 194.45-13.3174 195.237-14.7393 196.024-16.1611 197.154-17.3418 198.626-18.2812 200.099-19.2207 201.902-19.9253 204.035-20.395 206.167-20.8647 208.567-21.0996 211.233-21.0996L215.955-21.0996 215.955-23.7656C215.955-25.0859 215.816-26.2539 215.536-27.2695 215.257-28.2852 214.806-29.1294 214.184-29.8022 213.562-30.4751 212.756-30.9829 211.766-31.3257 210.776-31.6685 209.557-31.8398 208.11-31.8398 206.561-31.8398 205.171-31.6558 203.939-31.2876 202.708-30.9194 201.629-30.5132 200.702-30.0688 199.775-29.6245 199.001-29.2183 198.379-28.8501 197.757-28.4819 197.293-28.2978 196.989-28.2978 196.785-28.2978 196.608-28.3486 196.455-28.4502 196.303-28.5518 196.17-28.7041 196.055-28.9072 195.941-29.1103 195.859-29.3706 195.808-29.688 195.757-30.0054 195.732-30.3545 195.732-30.7353 195.732-31.3701 195.776-31.8716 195.865-32.2397 195.954-32.6079 196.17-32.957 196.513-33.2871 196.855-33.6172 197.446-34.0044 198.284-34.4487 199.121-34.8931 200.086-35.2993 201.178-35.6675 202.27-36.0356 203.463-36.3403 204.758-36.5815 206.053-36.8228 207.361-36.9434 208.681-36.9434 211.144-36.9434 213.239-36.6641 214.965-36.1055 216.692-35.5469 218.088-34.728 219.155-33.6489 220.221-32.5698 220.995-31.2305 221.478-29.6309 221.96-28.0312 222.201-26.165 222.201-24.0322ZM215.955-16.5674 210.585-16.5674C208.859-16.5674 207.361-16.4214 206.091-16.1294 204.822-15.8374 203.768-15.4058 202.93-14.8345 202.092-14.2632 201.476-13.5776 201.083-12.7778 200.689-11.978 200.493-11.0576 200.493-10.0166 200.493-8.23926 201.057-6.82373 202.187-5.77002 203.317-4.71631 204.898-4.18945 206.929-4.18945 208.579-4.18945 210.109-4.6084 211.518-5.44629 212.928-6.28418 214.407-7.56641 215.955-9.29297ZM265.246-18.5478C265.246-15.5771 264.922-12.9048 264.274-10.5308 263.627-8.15674 262.675-6.13184 261.418-4.45605 260.161-2.78027 258.619-1.49805 256.791-0.609375 254.962 0.279297 252.868 0.723633 250.506 0.723633 249.415 0.723633 248.405 0.615723 247.479 0.399902 246.552 0.184082 245.644-0.165039 244.755-0.647461 243.867-1.12988 242.978-1.73926 242.089-2.47559 241.201-3.21191 240.261-4.10059 239.271-5.1416L239.271-0.952148C239.271-0.749023 239.22-0.571289 239.119-0.418945 239.017-0.266602 238.852-0.145996 238.624-0.0571289 238.395 0.0317383 238.109 0.101562 237.767 0.152344 237.424 0.203125 236.986 0.228516 236.453 0.228516 235.945 0.228516 235.513 0.203125 235.158 0.152344 234.802 0.101562 234.51 0.0317383 234.282-0.0571289 234.053-0.145996 233.901-0.266602 233.825-0.418945 233.749-0.571289 233.71-0.749023 233.71-0.952148L233.71-51.835C233.71-52.0381 233.755-52.2158 233.844-52.3682 233.933-52.5205 234.098-52.6475 234.339-52.749 234.58-52.8506 234.904-52.9268 235.31-52.9775 235.716-53.0283 236.224-53.0537 236.834-53.0537 237.468-53.0537 237.989-53.0283 238.395-52.9775 238.801-52.9268 239.119-52.8506 239.347-52.749 239.576-52.6475 239.741-52.5205 239.842-52.3682 239.944-52.2158 239.995-52.0381 239.995-51.835L239.995-31.3066C241.01-32.3477 241.994-33.2236 242.946-33.9346 243.898-34.6455 244.832-35.2231 245.746-35.6675 246.66-36.1118 247.574-36.4355 248.488-36.6387 249.402-36.8418 250.367-36.9434 251.382-36.9434 253.871-36.9434 255.997-36.4482 257.762-35.458 259.526-34.4678 260.961-33.1411 262.065-31.478 263.17-29.8149 263.976-27.8662 264.484-25.6318 264.992-23.3975 265.246-21.0361 265.246-18.5478ZM258.733-17.8242C258.733-19.5762 258.599-21.2773 258.331-22.9277 258.062-24.5781 257.596-26.0381 256.932-27.3076 256.268-28.5771 255.386-29.5991 254.288-30.3735 253.19-31.1479 251.823-31.5352 250.187-31.5352 249.37-31.5352 248.566-31.4209 247.774-31.1924 246.982-30.9639 246.177-30.583 245.359-30.0498 244.542-29.5166 243.692-28.8311 242.811-27.9932 241.93-27.1553 240.991-26.1016 239.995-24.832L239.995-11.1592C241.732-9.05176 243.392-7.4458 244.976-6.34131 246.56-5.23682 248.208-4.68457 249.92-4.68457 251.503-4.68457 252.857-5.06543 253.981-5.82715 255.106-6.58887 256.019-7.59814 256.721-8.85498 257.424-10.1118 257.935-11.521 258.254-13.0825 258.573-14.644 258.733-16.2246 258.733-17.8242ZM300.462-0.914062C300.462-0.609375 300.36-0.380859 300.157-0.228516 299.954-0.0761719 299.675 0.0380859 299.319 0.114258 298.964 0.19043 298.443 0.228516 297.758 0.228516 297.098 0.228516 296.571 0.19043 296.177 0.114258 295.784 0.0380859 295.498-0.0761719 295.32-0.228516 295.143-0.380859 295.054-0.609375 295.054-0.914062L295.054-4.3418C293.556-2.74219 291.886-1.49805 290.045-0.609375 288.205 0.279297 286.256 0.723633 284.199 0.723633 282.396 0.723633 280.765 0.488769 279.305 0.019043 277.845-0.450684 276.601-1.12988 275.573-2.01855 274.544-2.90723 273.745-3.99902 273.173-5.29394 272.602-6.58887 272.316-8.06152 272.316-9.71191 272.316-11.6416 272.71-13.3174 273.497-14.7393 274.284-16.1611 275.414-17.3418 276.887-18.2812 278.359-19.2207 280.162-19.9253 282.295-20.395 284.428-20.8647 286.827-21.0996 289.493-21.0996L294.216-21.0996 294.216-23.7656C294.216-25.0859 294.076-26.2539 293.797-27.2695 293.518-28.2852 293.067-29.1294 292.445-29.8022 291.823-30.4751 291.017-30.9829 290.026-31.3257 289.036-31.6685 287.817-31.8398 286.37-31.8398 284.821-31.8398 283.431-31.6558 282.2-31.2876 280.968-30.9194 279.889-30.5132 278.962-30.0688 278.036-29.6245 277.261-29.2183 276.639-28.8501 276.017-28.4819 275.554-28.2978 275.249-28.2978 275.046-28.2978 274.868-28.3486 274.716-28.4502 274.563-28.5518 274.43-28.7041 274.316-28.9072 274.202-29.1103 274.119-29.3706 274.068-29.688 274.018-30.0054 273.992-30.3545 273.992-30.7353 273.992-31.3701 274.037-31.8716 274.125-32.2397 274.214-32.6079 274.43-32.957 274.773-33.2871 275.116-33.6172 275.706-34.0044 276.544-34.4487 277.382-34.8931 278.347-35.2993 279.438-35.6675 280.53-36.0356 281.724-36.3403 283.019-36.5815 284.313-36.8228 285.621-36.9434 286.941-36.9434 289.404-36.9434 291.499-36.6641 293.226-36.1055 294.952-35.5469 296.349-34.728 297.415-33.6489 298.481-32.5698 299.256-31.2305 299.738-29.6309 300.221-28.0312 300.462-26.165 300.462-24.0322ZM294.216-16.5674 288.846-16.5674C287.119-16.5674 285.621-16.4214 284.352-16.1294 283.082-15.8374 282.028-15.4058 281.19-14.8345 280.353-14.2632 279.737-13.5776 279.343-12.7778 278.95-11.978 278.753-11.0576 278.753-10.0166 278.753-8.23926 279.318-6.82373 280.448-5.77002 281.578-4.71631 283.158-4.18945 285.189-4.18945 286.84-4.18945 288.37-4.6084 289.779-5.44629 291.188-6.28418 292.667-7.56641 294.216-9.29297ZM333.489-10.2832C333.489-8.53125 333.166-6.96973 332.518-5.59863 331.871-4.22754 330.95-3.07227 329.757-2.13281 328.564-1.19336 327.142-0.482422 325.491 0 323.841 0.482422 322.026 0.723633 320.045 0.723633 318.826 0.723633 317.665 0.628418 316.56 0.437988 315.456 0.247559 314.466 0.00634765 313.59-0.285645 312.714-0.577637 311.971-0.882324 311.362-1.19971 310.752-1.51709 310.308-1.80273 310.029-2.05664 309.749-2.31055 309.546-2.66602 309.419-3.12305 309.292-3.58008 309.229-4.20215 309.229-4.98926 309.229-5.47168 309.254-5.87793 309.305-6.20801 309.356-6.53809 309.419-6.80469 309.495-7.00781 309.571-7.21094 309.679-7.35693 309.819-7.4458 309.959-7.53467 310.117-7.5791 310.295-7.5791 310.574-7.5791 310.987-7.40771 311.533-7.06494 312.079-6.72217 312.752-6.34766 313.551-5.94141 314.351-5.53516 315.297-5.16064 316.389-4.81787 317.481-4.4751 318.737-4.30371 320.159-4.30371 321.226-4.30371 322.191-4.41797 323.054-4.64648 323.917-4.875 324.666-5.21143 325.301-5.65576 325.936-6.1001 326.424-6.66504 326.767-7.35058 327.11-8.03613 327.281-8.84863 327.281-9.78808 327.281-10.7529 327.034-11.5654 326.539-12.2256 326.044-12.8857 325.39-13.4697 324.577-13.9775 323.765-14.4853 322.851-14.936 321.835-15.3296 320.82-15.7231 319.772-16.1357 318.693-16.5674 317.614-16.999 316.56-17.4878 315.532-18.0337 314.504-18.5796 313.583-19.2461 312.771-20.0332 311.958-20.8203 311.304-21.7598 310.809-22.8516 310.314-23.9434 310.067-25.251 310.067-26.7744 310.067-28.1201 310.327-29.4087 310.847-30.6401 311.368-31.8716 312.149-32.9507 313.19-33.8774 314.231-34.8042 315.532-35.5469 317.093-36.1055 318.655-36.6641 320.477-36.9434 322.559-36.9434 323.473-36.9434 324.387-36.8672 325.301-36.7148 326.215-36.5625 327.04-36.3721 327.777-36.1436 328.513-35.915 329.141-35.6675 329.662-35.4009 330.182-35.1343 330.576-34.8994 330.842-34.6963 331.109-34.4932 331.287-34.3154 331.376-34.1631 331.465-34.0107 331.528-33.8394 331.566-33.6489 331.604-33.4585 331.642-33.2236 331.68-32.9443 331.718-32.665 331.737-32.3223 331.737-31.916 331.737-31.4844 331.718-31.1099 331.68-30.7925 331.642-30.4751 331.579-30.2148 331.49-30.0117 331.401-29.8086 331.293-29.6626 331.166-29.5737 331.039-29.4849 330.9-29.4404 330.747-29.4404 330.519-29.4404 330.189-29.5801 329.757-29.8594 329.325-30.1387 328.767-30.437 328.081-30.7544 327.396-31.0718 326.59-31.3701 325.663-31.6494 324.736-31.9287 323.676-32.0684 322.483-32.0684 321.416-32.0684 320.477-31.9478 319.664-31.7065 318.852-31.4653 318.185-31.1226 317.665-30.6782 317.144-30.2339 316.751-29.707 316.484-29.0977 316.217-28.4883 316.084-27.8281 316.084-27.1172 316.084-26.127 316.338-25.2954 316.846-24.6226 317.354-23.9497 318.014-23.3594 318.826-22.8516 319.639-22.3437 320.566-21.8867 321.607-21.4805 322.648-21.0742 323.708-20.6553 324.787-20.2236 325.866-19.792 326.932-19.3096 327.986-18.7764 329.04-18.2432 329.973-17.5957 330.785-16.834 331.598-16.0723 332.252-15.1582 332.747-14.0918 333.242-13.0254 333.489-11.7559 333.489-10.2832ZM371.7-19.5762C371.7-18.5859 371.451-17.8813 370.954-17.4624 370.457-17.0435 369.889-16.834 369.251-16.834L346.678-16.834C346.678-14.9297 346.869-13.2158 347.252-11.6924 347.634-10.1689 348.272-8.86133 349.165-7.76953 350.058-6.67773 351.219-5.83984 352.648-5.25586 354.077-4.67187 355.824-4.37988 357.891-4.37988 359.524-4.37988 360.978-4.51318 362.254-4.77978 363.53-5.04639 364.633-5.34473 365.564-5.6748 366.496-6.00488 367.261-6.30322 367.861-6.56982 368.46-6.83643 368.913-6.96973 369.22-6.96973 369.398-6.96973 369.558-6.92529 369.698-6.83643 369.838-6.74756 369.946-6.61426 370.023-6.43652 370.1-6.25879 370.157-6.01123 370.195-5.69385 370.234-5.37646 370.253-4.98926 370.253-4.53223 370.253-4.20215 370.24-3.9165 370.215-3.67529 370.189-3.43408 370.158-3.21826 370.119-3.02783 370.081-2.8374 370.018-2.66602 369.929-2.51367 369.84-2.36133 369.726-2.21533 369.586-2.07568 369.447-1.93603 369.034-1.70752 368.348-1.39014 367.663-1.07275 366.774-0.761719 365.682-0.457031 364.591-0.152344 363.327 0.120605 361.893 0.361816 360.458 0.603027 358.929 0.723633 357.304 0.723633 354.485 0.723633 352.016 0.330078 349.896-0.457031 347.776-1.24414 345.992-2.41211 344.545-3.96094 343.098-5.50977 342.006-7.45215 341.269-9.78808 340.533-12.124 340.165-14.8408 340.165-17.9385 340.165-20.8838 340.546-23.5308 341.307-25.8794 342.069-28.228 343.167-30.2212 344.602-31.8589 346.036-33.4966 347.769-34.7534 349.801-35.6294 351.832-36.5054 354.104-36.9434 356.618-36.9434 359.309-36.9434 361.601-36.5117 363.493-35.6484 365.384-34.7852 366.939-33.6235 368.158-32.1636 369.377-30.7036 370.272-28.9897 370.843-27.022 371.414-25.0542 371.7-22.9531 371.7-20.7187ZM365.378-21.4424C365.454-24.7432 364.719-27.333 363.174-29.2119 361.629-31.0908 359.336-32.0303 356.296-32.0303 354.738-32.0303 353.371-31.7383 352.196-31.1543 351.021-30.5703 350.037-29.7959 349.245-28.8311 348.453-27.8662 347.84-26.7427 347.406-25.4604 346.971-24.1782 346.729-22.8389 346.678-21.4424Z" fill="#FFFFFF" transform="matrix(1 0 0 1 69.656 120)"/></g></g><rect x="2419" y="957" width="386" height="193" fill="url(#fill13)"/><text fill="#FFFFFF" font-family="Calibri,Calibri_MSFontService,sans-serif" font-weight="400" font-size="78" transform="matrix(1 0 0 1 2424.66 1075)">AFDatabase</text><g clip-path="url(#clip14)" filter="url(#fx2)" transform="translate(2397 1216)"><g clip-path="url(#clip15)"><rect x="22" y="21.875" width="386" height="193" fill="#FF0000"/></g></g><g clip-path="url(#clip16)" filter="url(#fx3)" transform="translate(2371 1237)"><g clip-path="url(#clip17)"><path d="M43.4561-2.32324C43.6592-1.76465 43.7671-1.31396 43.7798-0.971191 43.7925-0.628418 43.6973-0.368164 43.4941-0.19043 43.291-0.0126953 42.9546 0.101562 42.4849 0.152344 42.0151 0.203125 41.3867 0.228516 40.5996 0.228516 39.8125 0.228516 39.1841 0.209473 38.7144 0.171387 38.2446 0.133301 37.8892 0.0698242 37.6479-0.019043 37.4067-0.10791 37.229-0.228516 37.1147-0.380859 37.0005-0.533203 36.8926-0.723633 36.791-0.952148L32.5635-12.9492 12.0732-12.9492 8.03613-1.10449C7.95996-0.875976 7.8584-0.679199 7.73144-0.51416 7.60449-0.349121 7.42041-0.209473 7.1792-0.0952148 6.93799 0.019043 6.59521 0.101562 6.15088 0.152344 5.70654 0.203125 5.12891 0.228516 4.41797 0.228516 3.68164 0.228516 3.07861 0.196777 2.60889 0.133301 2.13916 0.0698242 1.80908-0.0507812 1.61865-0.228516 1.42822-0.40625 1.33936-0.666504 1.35205-1.00928 1.36475-1.35205 1.47266-1.80273 1.67578-2.36133L18.2051-48.1406C18.3066-48.4199 18.4399-48.6484 18.605-48.8262 18.77-49.0039 19.0112-49.1436 19.3286-49.2451 19.646-49.3467 20.0522-49.4165 20.5474-49.4546 21.0425-49.4927 21.6709-49.5117 22.4326-49.5117 23.2451-49.5117 23.918-49.4927 24.4512-49.4546 24.9844-49.4165 25.416-49.3467 25.7461-49.2451 26.0762-49.1436 26.3301-48.9976 26.5078-48.8071 26.6855-48.6167 26.8252-48.3818 26.9268-48.1025ZM22.2422-42.7324 22.2041-42.7324 13.7109-18.167 30.8496-18.167ZM77.5263-46.4648C77.5263-45.9824 77.5009-45.5635 77.4501-45.208 77.3993-44.8525 77.3105-44.5669 77.1835-44.3511 77.0566-44.1353 76.9106-43.9766 76.7455-43.875 76.5805-43.7734 76.4091-43.7227 76.2314-43.7227L58.1786-43.7227 58.1786-26.9648 75.2411-26.9648C75.4189-26.9648 75.5903-26.9204 75.7553-26.8315 75.9203-26.7427 76.0663-26.5967 76.1933-26.3936 76.3202-26.1904 76.4091-25.9175 76.4599-25.5747 76.5107-25.2319 76.5361-24.7939 76.5361-24.2607 76.5361-23.7783 76.5107-23.3657 76.4599-23.0229 76.4091-22.6802 76.3202-22.4009 76.1933-22.1851 76.0663-21.9692 75.9203-21.8042 75.7553-21.6899 75.5903-21.5757 75.4189-21.5186 75.2411-21.5186L58.1786-21.5186 58.1786-0.990234C58.1786-0.8125 58.1279-0.641113 58.0263-0.476074 57.9247-0.311035 57.747-0.184082 57.4931-0.0952148 57.2392-0.00634766 56.9091 0.0698242 56.5029 0.133301 56.0966 0.196777 55.5634 0.228516 54.9033 0.228516 54.2939 0.228516 53.7734 0.196777 53.3417 0.133301 52.9101 0.0698242 52.5673-0.00634766 52.3134-0.0952148 52.0595-0.184082 51.8818-0.311035 51.7802-0.476074 51.6786-0.641113 51.6279-0.8125 51.6279-0.990234L51.6279-46.6172C51.6279-47.6074 51.8881-48.2993 52.4086-48.6929 52.9291-49.0864 53.4814-49.2832 54.0654-49.2832L76.2314-49.2832C76.4091-49.2832 76.5805-49.2324 76.7455-49.1309 76.9106-49.0293 77.0566-48.8643 77.1835-48.6357 77.3105-48.4072 77.3993-48.1089 77.4501-47.7407 77.5009-47.3726 77.5263-46.9473 77.5263-46.4648ZM114.846-2.7041C114.846-2.24707 114.82-1.84717 114.769-1.50439 114.719-1.16162 114.63-0.875976 114.503-0.647461 114.376-0.418945 114.23-0.253906 114.065-0.152344 113.9-0.0507812 113.716 0 113.513 0L89.8612 0C89.2772 0 88.725-0.196777 88.2045-0.590332 87.6839-0.983887 87.4237-1.67578 87.4237-2.66602L87.4237-46.6172C87.4237-47.6074 87.6839-48.2993 88.2045-48.6929 88.725-49.0864 89.2772-49.2832 89.8612-49.2832L113.246-49.2832C113.449-49.2832 113.633-49.2324 113.798-49.1309 113.963-49.0293 114.097-48.8643 114.198-48.6357 114.3-48.4072 114.382-48.1216 114.446-47.7788 114.509-47.436 114.541-47.0107 114.541-46.5029 114.541-46.0459 114.509-45.646 114.446-45.3032 114.382-44.9604 114.3-44.6811 114.198-44.4653 114.097-44.2495 113.963-44.0908 113.798-43.9893 113.633-43.8877 113.449-43.8369 113.246-43.8369L93.9745-43.8369 93.9745-28.374 110.504-28.374C110.707-28.374 110.891-28.3169 111.056-28.2026 111.221-28.0884 111.361-27.9297 111.475-27.7266 111.589-27.5234 111.672-27.2441 111.723-26.8887 111.773-26.5332 111.799-26.1143 111.799-25.6318 111.799-25.1748 111.773-24.7812 111.723-24.4512 111.672-24.1211 111.589-23.8545 111.475-23.6514 111.361-23.4482 111.221-23.3022 111.056-23.2134 110.891-23.1245 110.707-23.0801 110.504-23.0801L93.9745-23.0801 93.9745-5.44629 113.513-5.44629C113.716-5.44629 113.9-5.39551 114.065-5.29394 114.23-5.19238 114.376-5.03369 114.503-4.81787 114.63-4.60205 114.719-4.32275 114.769-3.97998 114.82-3.63721 114.846-3.21191 114.846-2.7041ZM131.026-0.952148C131.026-0.749023 130.975-0.577637 130.874-0.437988 130.772-0.29834 130.607-0.177734 130.378-0.0761719 130.15 0.0253906 129.833 0.101562 129.426 0.152344 129.02 0.203125 128.5 0.228516 127.865 0.228516 127.255 0.228516 126.748 0.203125 126.341 0.152344 125.935 0.101562 125.611 0.0253906 125.37-0.0761719 125.129-0.177734 124.964-0.29834 124.875-0.437988 124.786-0.577637 124.742-0.749023 124.742-0.952148L124.742-51.835C124.742-52.0381 124.786-52.2158 124.875-52.3682 124.964-52.5205 125.129-52.6475 125.37-52.749 125.611-52.8506 125.935-52.9268 126.341-52.9775 126.748-53.0283 127.255-53.0537 127.865-53.0537 128.5-53.0537 129.02-53.0283 129.426-52.9775 129.833-52.9268 130.15-52.8506 130.378-52.749 130.607-52.6475 130.772-52.5205 130.874-52.3682 130.975-52.2158 131.026-52.0381 131.026-51.835ZM171.867-19.5762C171.867-18.5859 171.618-17.8813 171.121-17.4624 170.623-17.0435 170.056-16.834 169.418-16.834L146.844-16.834C146.844-14.9297 147.036-13.2158 147.418-11.6924 147.801-10.1689 148.439-8.86133 149.332-7.76953 150.225-6.67773 151.386-5.83984 152.815-5.25586 154.243-4.67187 155.991-4.37988 158.058-4.37988 159.691-4.37988 161.145-4.51318 162.421-4.77978 163.696-5.04639 164.8-5.34473 165.731-5.6748 166.662-6.00488 167.428-6.30322 168.027-6.56982 168.627-6.83643 169.08-6.96973 169.386-6.96973 169.565-6.96973 169.724-6.92529 169.865-6.83643 170.005-6.74756 170.113-6.61426 170.19-6.43652 170.266-6.25879 170.324-6.01123 170.362-5.69385 170.4-5.37646 170.419-4.98926 170.419-4.53223 170.419-4.20215 170.407-3.9165 170.381-3.67529 170.356-3.43408 170.324-3.21826 170.286-3.02783 170.248-2.8374 170.185-2.66602 170.096-2.51367 170.007-2.36133 169.893-2.21533 169.753-2.07568 169.613-1.93603 169.201-1.70752 168.515-1.39014 167.83-1.07275 166.941-0.761719 165.849-0.457031 164.757-0.152344 163.494 0.120605 162.06 0.361816 160.625 0.603027 159.095 0.723633 157.47 0.723633 154.652 0.723633 152.183 0.330078 150.063-0.457031 147.942-1.24414 146.159-2.41211 144.711-3.96094 143.264-5.50977 142.172-7.45215 141.436-9.78808 140.7-12.124 140.332-14.8408 140.332-17.9385 140.332-20.8838 140.712-23.5308 141.474-25.8794 142.236-28.228 143.334-30.2212 144.769-31.8589 146.203-33.4966 147.936-34.7534 149.967-35.6294 151.999-36.5054 154.271-36.9434 156.785-36.9434 159.476-36.9434 161.768-36.5117 163.659-35.6484 165.551-34.7852 167.106-33.6235 168.325-32.1636 169.543-30.7036 170.438-28.9897 171.01-27.022 171.581-25.0542 171.867-22.9531 171.867-20.7187ZM165.544-21.4424C165.621-24.7432 164.886-27.333 163.341-29.2119 161.796-31.0908 159.503-32.0303 156.463-32.0303 154.904-32.0303 153.538-31.7383 152.363-31.1543 151.187-30.5703 150.204-29.7959 149.412-28.8311 148.62-27.8662 148.007-26.7427 147.572-25.4604 147.138-24.1782 146.895-22.8389 146.844-21.4424ZM232.236-0.952148C232.236-0.749023 232.186-0.577637 232.084-0.437988 231.983-0.29834 231.817-0.177734 231.589-0.0761719 231.36 0.0253906 231.043 0.101562 230.637 0.152344 230.231 0.203125 229.723 0.228516 229.113 0.228516 228.479 0.228516 227.958 0.203125 227.552 0.152344 227.146 0.101562 226.822 0.0253906 226.581-0.0761719 226.339-0.177734 226.168-0.29834 226.067-0.437988 225.965-0.577637 225.914-0.749023 225.914-0.952148L225.914-21.7852C225.914-23.2324 225.787-24.5527 225.533-25.7461 225.279-26.9395 224.873-27.9678 224.315-28.8311 223.756-29.6943 223.045-30.3545 222.182-30.8115 221.318-31.2686 220.303-31.4971 219.135-31.4971 217.688-31.4971 216.234-30.9385 214.774-29.8213 213.314-28.7041 211.708-27.0664 209.956-24.9082L209.956-0.952148C209.956-0.749023 209.905-0.577637 209.804-0.437988 209.702-0.29834 209.531-0.177734 209.29-0.0761719 209.048 0.0253906 208.725 0.101562 208.318 0.152344 207.912 0.203125 207.404 0.228516 206.795 0.228516 206.211 0.228516 205.71 0.203125 205.291 0.152344 204.872 0.101562 204.542 0.0253906 204.3-0.0761719 204.059-0.177734 203.894-0.29834 203.805-0.437988 203.716-0.577637 203.672-0.749023 203.672-0.952148L203.672-21.7852C203.672-23.2324 203.532-24.5527 203.253-25.7461 202.974-26.9395 202.555-27.9678 201.996-28.8311 201.438-29.6943 200.733-30.3545 199.882-30.8115 199.032-31.2686 198.023-31.4971 196.855-31.4971 195.407-31.4971 193.947-30.9385 192.475-29.8213 191.002-28.7041 189.402-27.0664 187.676-24.9082L187.676-0.952148C187.676-0.749023 187.625-0.577637 187.524-0.437988 187.422-0.29834 187.257-0.177734 187.028-0.0761719 186.8 0.0253906 186.483 0.101562 186.076 0.152344 185.67 0.203125 185.15 0.228516 184.515 0.228516 183.905 0.228516 183.398 0.203125 182.991 0.152344 182.585 0.101562 182.261 0.0253906 182.02-0.0761719 181.779-0.177734 181.614-0.29834 181.525-0.437988 181.436-0.577637 181.392-0.749023 181.392-0.952148L181.392-35.2295C181.392-35.4326 181.43-35.604 181.506-35.7436 181.582-35.8833 181.734-36.0103 181.963-36.1245 182.191-36.2388 182.483-36.3149 182.839-36.353 183.194-36.3911 183.664-36.4102 184.248-36.4102 184.807-36.4102 185.27-36.3911 185.638-36.353 186.006-36.3149 186.292-36.2388 186.495-36.1245 186.698-36.0103 186.844-35.8833 186.933-35.7436 187.022-35.604 187.066-35.4326 187.067-35.2295L187.067-30.6973C188.996-32.8555 190.869-34.436 192.684-35.439 194.5-36.4419 196.334-36.9434 198.188-36.9434 199.609-36.9434 200.885-36.7783 202.015-36.4482 203.145-36.1182 204.142-35.6548 205.005-35.0581 205.868-34.4614 206.605-33.7505 207.214-32.9253 207.823-32.1001 208.331-31.1797 208.737-30.1641 209.88-31.4082 210.965-32.4619 211.994-33.3252 213.022-34.1885 214.012-34.8867 214.964-35.4199 215.917-35.9531 216.843-36.3403 217.745-36.5815 218.646-36.8228 219.554-36.9434 220.468-36.9434 222.677-36.9434 224.53-36.5561 226.028-35.7817 227.526-35.0073 228.739-33.9727 229.666-32.6777 230.592-31.3828 231.253-29.8657 231.646-28.1265 232.04-26.3872 232.236-24.5527 232.236-22.623ZM272.883-19.5762C272.883-18.5859 272.635-17.8813 272.137-17.4624 271.64-17.0435 271.073-16.834 270.435-16.834L247.861-16.834C247.861-14.9297 248.052-13.2158 248.435-11.6924 248.818-10.1689 249.455-8.86133 250.348-7.76953 251.241-6.67773 252.402-5.83984 253.831-5.25586 255.26-4.67187 257.008-4.37988 259.074-4.37988 260.707-4.37988 262.161-4.51318 263.437-4.77978 264.713-5.04639 265.816-5.34473 266.748-5.6748 267.679-6.00488 268.444-6.30322 269.044-6.56982 269.644-6.83643 270.097-6.96973 270.403-6.96973 270.582-6.96973 270.741-6.92529 270.881-6.83643 271.021-6.74756 271.13-6.61426 271.206-6.43652 271.283-6.25879 271.34-6.01123 271.379-5.69385 271.417-5.37646 271.436-4.98926 271.436-4.53223 271.436-4.20215 271.423-3.9165 271.398-3.67529 271.373-3.43408 271.341-3.21826 271.303-3.02783 271.265-2.8374 271.201-2.66602 271.112-2.51367 271.023-2.36133 270.909-2.21533 270.77-2.07568 270.63-1.93603 270.217-1.70752 269.532-1.39014 268.846-1.07275 267.958-0.761719 266.866-0.457031 265.774-0.152344 264.511 0.120605 263.076 0.361816 261.642 0.603027 260.112 0.723633 258.487 0.723633 255.669 0.723633 253.199 0.330078 251.079-0.457031 248.959-1.24414 247.175-2.41211 245.728-3.96094 244.281-5.50977 243.189-7.45215 242.453-9.78808 241.716-12.124 241.348-14.8408 241.348-17.9385 241.348-20.8838 241.729-23.5308 242.491-25.8794 243.253-28.228 244.351-30.2212 245.785-31.8589 247.22-33.4966 248.953-34.7534 250.984-35.6294 253.015-36.5054 255.288-36.9434 257.801-36.9434 260.493-36.9434 262.784-36.5117 264.676-35.6484 266.567-34.7852 268.123-33.6235 269.341-32.1636 270.56-30.7036 271.455-28.9897 272.026-27.022 272.598-25.0542 272.883-22.9531 272.883-20.7187ZM266.561-21.4424C266.637-24.7432 265.903-27.333 264.357-29.2119 262.812-31.0908 260.52-32.0303 257.479-32.0303 255.921-32.0303 254.554-31.7383 253.379-31.1543 252.204-30.5703 251.221-29.7959 250.428-28.8311 249.636-27.8662 249.023-26.7427 248.589-25.4604 248.155-24.1782 247.912-22.8389 247.861-21.4424ZM311.925-0.952148C311.925-0.749023 311.874-0.577637 311.773-0.437988 311.671-0.29834 311.506-0.177734 311.278-0.0761719 311.049 0.0253906 310.732 0.101562 310.325 0.152344 309.919 0.203125 309.411 0.228516 308.802 0.228516 308.167 0.228516 307.647 0.203125 307.24 0.152344 306.834 0.101562 306.517 0.0253906 306.288-0.0761719 306.06-0.177734 305.895-0.29834 305.793-0.437988 305.692-0.577637 305.641-0.749023 305.641-0.952148L305.641-21.0234C305.641-22.9785 305.488-24.5527 305.184-25.7461 304.879-26.9395 304.435-27.9678 303.851-28.8311 303.267-29.6943 302.511-30.3545 301.585-30.8115 300.658-31.2686 299.585-31.4971 298.366-31.4971 296.792-31.4971 295.218-30.9385 293.644-29.8213 292.07-28.7041 290.419-27.0664 288.693-24.9082L288.693-0.952148C288.693-0.749023 288.642-0.577637 288.54-0.437988 288.439-0.29834 288.274-0.177734 288.045-0.0761719 287.817 0.0253906 287.499 0.101562 287.093 0.152344 286.687 0.203125 286.166 0.228516 285.531 0.228516 284.922 0.228516 284.414 0.203125 284.008 0.152344 283.602 0.101562 283.278 0.0253906 283.037-0.0761719 282.796-0.177734 282.631-0.29834 282.542-0.437988 282.453-0.577637 282.408-0.749023 282.408-0.952148L282.408-35.2295C282.408-35.4326 282.446-35.604 282.523-35.7436 282.599-35.8833 282.751-36.0103 282.98-36.1245 283.208-36.2388 283.5-36.3149 283.856-36.353 284.211-36.3911 284.681-36.4102 285.265-36.4102 285.823-36.4102 286.287-36.3911 286.655-36.353 287.023-36.3149 287.309-36.2388 287.512-36.1245 287.715-36.0103 287.861-35.8833 287.95-35.7436 288.039-35.604 288.083-35.4326 288.083-35.2295L288.083-30.6973C290.013-32.8555 291.936-34.436 293.853-35.439 295.77-36.4419 297.706-36.9434 299.661-36.9434 301.946-36.9434 303.87-36.5561 305.431-35.7817 306.993-35.0073 308.256-33.9727 309.221-32.6777 310.186-31.3828 310.878-29.8657 311.297-28.1265 311.716-26.3872 311.925-24.2988 311.925-21.8613ZM340.428-3.46582C340.428-2.72949 340.378-2.14551 340.276-1.71387 340.174-1.28223 340.022-0.964844 339.819-0.761719 339.616-0.558594 339.311-0.368164 338.905-0.19043 338.499-0.0126953 338.035 0.133301 337.515 0.247559 336.994 0.361816 336.442 0.457031 335.858 0.533203 335.274 0.609375 334.69 0.647461 334.106 0.647461 332.329 0.647461 330.805 0.412598 329.536-0.0571289 328.266-0.526855 327.225-1.23779 326.413-2.18994 325.6-3.14209 325.01-4.34814 324.642-5.8081 324.274-7.26807 324.09-8.98828 324.09-10.9687L324.09-31.0019 319.291-31.0019C318.91-31.0019 318.605-31.2051 318.377-31.6113 318.148-32.0176 318.034-32.6777 318.034-33.5918 318.034-34.0742 318.066-34.4805 318.129-34.8105 318.193-35.1406 318.275-35.4136 318.377-35.6294 318.478-35.8452 318.612-35.9976 318.777-36.0864 318.942-36.1753 319.126-36.2197 319.329-36.2197L324.09-36.2197 324.09-44.3701C324.09-44.5478 324.134-44.7129 324.223-44.8652 324.312-45.0176 324.477-45.1509 324.718-45.2651 324.959-45.3794 325.283-45.4619 325.689-45.5127 326.095-45.5635 326.603-45.5889 327.213-45.5889 327.847-45.5889 328.368-45.5635 328.774-45.5127 329.18-45.4619 329.498-45.3794 329.726-45.2651 329.955-45.1509 330.12-45.0176 330.221-44.8652 330.323-44.7129 330.374-44.5478 330.374-44.3701L330.374-36.2197 339.172-36.2197C339.375-36.2197 339.552-36.1753 339.705-36.0864 339.857-35.9976 339.99-35.8452 340.105-35.6294 340.219-35.4136 340.301-35.1406 340.352-34.8105 340.403-34.4805 340.428-34.0742 340.428-33.5918 340.428-32.6777 340.314-32.0176 340.086-31.6113 339.857-31.2051 339.552-31.0019 339.172-31.0019L330.374-31.0019 330.374-11.8828C330.374-9.52148 330.723-7.73779 331.421-6.53174 332.119-5.32568 333.37-4.72266 335.173-4.72266 335.757-4.72266 336.277-4.77978 336.734-4.89404 337.191-5.0083 337.597-5.12891 337.953-5.25586 338.308-5.38281 338.613-5.50342 338.867-5.61768 339.121-5.73193 339.349-5.78906 339.552-5.78906 339.679-5.78906 339.8-5.75732 339.914-5.69385 340.029-5.63037 340.117-5.50977 340.181-5.33203 340.244-5.1543 340.301-4.91309 340.352-4.6084 340.403-4.30371 340.428-3.92285 340.428-3.46582Z" fill="#FFFFFF" transform="matrix(1 0 0 1 69.9155 119)"/></g></g><rect x="2419" y="1231" width="386" height="193" fill="url(#fill18)"/><text fill="#FFFFFF" font-family="Calibri,Calibri_MSFontService,sans-serif" font-weight="400" font-size="78" transform="matrix(1 0 0 1 2440.92 1349)">AFElement</text><g clip-path="url(#clip19)" filter="url(#fx4)" transform="translate(2494 1490)"><g clip-path="url(#clip20)"><rect x="22" y="21.8749" width="386" height="193" fill="#FF0000"/></g></g><g clip-path="url(#clip21)" filter="url(#fx5)" transform="translate(2459 1511)"><g clip-path="url(#clip22)"><path d="M43.4561-2.32324C43.6592-1.76465 43.7671-1.31396 43.7798-0.971191 43.7925-0.628418 43.6973-0.368164 43.4941-0.19043 43.291-0.0126953 42.9546 0.101562 42.4849 0.152344 42.0151 0.203125 41.3867 0.228516 40.5996 0.228516 39.8125 0.228516 39.1841 0.209473 38.7144 0.171387 38.2446 0.133301 37.8892 0.0698242 37.6479-0.019043 37.4067-0.10791 37.229-0.228516 37.1147-0.380859 37.0005-0.533203 36.8926-0.723633 36.791-0.952148L32.5635-12.9492 12.0732-12.9492 8.03613-1.10449C7.95996-0.875976 7.8584-0.679199 7.73144-0.51416 7.60449-0.349121 7.42041-0.209473 7.1792-0.0952148 6.93799 0.019043 6.59521 0.101562 6.15088 0.152344 5.70654 0.203125 5.12891 0.228516 4.41797 0.228516 3.68164 0.228516 3.07861 0.196777 2.60889 0.133301 2.13916 0.0698242 1.80908-0.0507812 1.61865-0.228516 1.42822-0.40625 1.33936-0.666504 1.35205-1.00928 1.36475-1.35205 1.47266-1.80273 1.67578-2.36133L18.2051-48.1406C18.3066-48.4199 18.4399-48.6484 18.605-48.8262 18.77-49.0039 19.0112-49.1436 19.3286-49.2451 19.646-49.3467 20.0522-49.4165 20.5474-49.4546 21.0425-49.4927 21.6709-49.5117 22.4326-49.5117 23.2451-49.5117 23.918-49.4927 24.4512-49.4546 24.9844-49.4165 25.416-49.3467 25.7461-49.2451 26.0762-49.1436 26.3301-48.9976 26.5078-48.8071 26.6855-48.6167 26.8252-48.3818 26.9268-48.1025ZM22.2422-42.7324 22.2041-42.7324 13.7109-18.167 30.8496-18.167ZM77.5263-46.4648C77.5263-45.9824 77.5009-45.5635 77.4501-45.208 77.3993-44.8525 77.3105-44.5669 77.1835-44.3511 77.0566-44.1353 76.9106-43.9766 76.7455-43.875 76.5805-43.7734 76.4091-43.7227 76.2314-43.7227L58.1786-43.7227 58.1786-26.9648 75.2411-26.9648C75.4189-26.9648 75.5903-26.9204 75.7553-26.8315 75.9203-26.7427 76.0663-26.5967 76.1933-26.3936 76.3202-26.1904 76.4091-25.9175 76.4599-25.5747 76.5107-25.2319 76.5361-24.7939 76.5361-24.2607 76.5361-23.7783 76.5107-23.3657 76.4599-23.0229 76.4091-22.6802 76.3202-22.4009 76.1933-22.1851 76.0663-21.9692 75.9203-21.8042 75.7553-21.6899 75.5903-21.5757 75.4189-21.5186 75.2411-21.5186L58.1786-21.5186 58.1786-0.990234C58.1786-0.8125 58.1279-0.641113 58.0263-0.476074 57.9247-0.311035 57.747-0.184082 57.4931-0.0952148 57.2392-0.00634766 56.9091 0.0698242 56.5029 0.133301 56.0966 0.196777 55.5634 0.228516 54.9033 0.228516 54.2939 0.228516 53.7734 0.196777 53.3417 0.133301 52.9101 0.0698242 52.5673-0.00634766 52.3134-0.0952148 52.0595-0.184082 51.8818-0.311035 51.7802-0.476074 51.6786-0.641113 51.6279-0.8125 51.6279-0.990234L51.6279-46.6172C51.6279-47.6074 51.8881-48.2993 52.4086-48.6929 52.9291-49.0864 53.4814-49.2832 54.0654-49.2832L76.2314-49.2832C76.4091-49.2832 76.5805-49.2324 76.7455-49.1309 76.9106-49.0293 77.0566-48.8643 77.1835-48.6357 77.3105-48.4072 77.3993-48.1089 77.4501-47.7407 77.5009-47.3726 77.5263-46.9473 77.5263-46.4648ZM119.952-2.32324C120.155-1.76465 120.263-1.31396 120.276-0.971191 120.288-0.628418 120.193-0.368164 119.99-0.19043 119.787-0.0126953 119.45 0.101562 118.981 0.152344 118.511 0.203125 117.883 0.228516 117.095 0.228516 116.308 0.228516 115.68 0.209473 115.21 0.171387 114.74 0.133301 114.385 0.0698242 114.144-0.019043 113.903-0.10791 113.725-0.228516 113.611-0.380859 113.496-0.533203 113.388-0.723633 113.287-0.952148L109.059-12.9492 88.5691-12.9492 84.532-1.10449C84.4558-0.875976 84.3542-0.679199 84.2273-0.51416 84.1003-0.349121 83.9162-0.209473 83.675-0.0952148 83.4338 0.019043 83.091 0.101562 82.6467 0.152344 82.2024 0.203125 81.6247 0.228516 80.9138 0.228516 80.1775 0.228516 79.5744 0.196777 79.1047 0.133301 78.635 0.0698242 78.3049-0.0507812 78.1145-0.228516 77.924-0.40625 77.8352-0.666504 77.8479-1.00928 77.8606-1.35205 77.9685-1.80273 78.1716-2.36133L94.7009-48.1406C94.8025-48.4199 94.9358-48.6484 95.1008-48.8262 95.2658-49.0039 95.5071-49.1436 95.8244-49.2451 96.1418-49.3467 96.5481-49.4165 97.0432-49.4546 97.5383-49.4927 98.1667-49.5117 98.9284-49.5117 99.7409-49.5117 100.414-49.4927 100.947-49.4546 101.48-49.4165 101.912-49.3467 102.242-49.2451 102.572-49.1436 102.826-48.9976 103.004-48.8071 103.181-48.6167 103.321-48.3818 103.423-48.1025ZM98.738-42.7324 98.6999-42.7324 90.2068-18.167 107.345-18.167ZM143.253-3.46582C143.253-2.72949 143.203-2.14551 143.101-1.71387 143-1.28223 142.847-0.964844 142.644-0.761719 142.441-0.558594 142.136-0.368164 141.73-0.19043 141.324-0.0126953 140.86 0.133301 140.34 0.247559 139.819 0.361816 139.267 0.457031 138.683 0.533203 138.099 0.609375 137.515 0.647461 136.931 0.647461 135.154 0.647461 133.63 0.412598 132.361-0.0571289 131.091-0.526855 130.05-1.23779 129.238-2.18994 128.425-3.14209 127.835-4.34814 127.467-5.8081 127.099-7.26807 126.915-8.98828 126.915-10.9687L126.915-31.0019 122.116-31.0019C121.735-31.0019 121.43-31.2051 121.202-31.6113 120.973-32.0176 120.859-32.6777 120.859-33.5918 120.859-34.0742 120.891-34.4805 120.954-34.8105 121.018-35.1406 121.1-35.4136 121.202-35.6294 121.303-35.8452 121.437-35.9976 121.602-36.0864 121.767-36.1753 121.951-36.2197 122.154-36.2197L126.915-36.2197 126.915-44.3701C126.915-44.5478 126.959-44.7129 127.048-44.8652 127.137-45.0176 127.302-45.1509 127.543-45.2651 127.784-45.3794 128.108-45.4619 128.514-45.5127 128.92-45.5635 129.428-45.5889 130.038-45.5889 130.672-45.5889 131.193-45.5635 131.599-45.5127 132.005-45.4619 132.323-45.3794 132.551-45.2651 132.78-45.1509 132.945-45.0176 133.046-44.8652 133.148-44.7129 133.199-44.5478 133.199-44.3701L133.199-36.2197 141.997-36.2197C142.2-36.2197 142.377-36.1753 142.53-36.0864 142.682-35.9976 142.815-35.8452 142.93-35.6294 143.044-35.4136 143.126-35.1406 143.177-34.8105 143.228-34.4805 143.253-34.0742 143.253-33.5918 143.253-32.6777 143.139-32.0176 142.911-31.6113 142.682-31.2051 142.377-31.0019 141.997-31.0019L133.199-31.0019 133.199-11.8828C133.199-9.52148 133.548-7.73779 134.246-6.53174 134.944-5.32568 136.195-4.72266 137.998-4.72266 138.582-4.72266 139.102-4.77978 139.559-4.89404 140.016-5.0083 140.422-5.12891 140.778-5.25586 141.133-5.38281 141.438-5.50342 141.692-5.61768 141.946-5.73193 142.174-5.78906 142.377-5.78906 142.504-5.78906 142.625-5.75732 142.739-5.69385 142.854-5.63037 142.942-5.50977 143.006-5.33203 143.069-5.1543 143.126-4.91309 143.177-4.6084 143.228-4.30371 143.253-3.92285 143.253-3.46582ZM168.256-3.46582C168.256-2.72949 168.205-2.14551 168.103-1.71387 168.002-1.28223 167.849-0.964844 167.646-0.761719 167.443-0.558594 167.138-0.368164 166.732-0.19043 166.326-0.0126953 165.862 0.133301 165.342 0.247559 164.821 0.361816 164.269 0.457031 163.685 0.533203 163.101 0.609375 162.517 0.647461 161.933 0.647461 160.156 0.647461 158.632 0.412598 157.363-0.0571289 156.093-0.526855 155.052-1.23779 154.24-2.18994 153.427-3.14209 152.837-4.34814 152.469-5.8081 152.101-7.26807 151.917-8.98828 151.917-10.9687L151.917-31.0019 147.118-31.0019C146.737-31.0019 146.432-31.2051 146.204-31.6113 145.975-32.0176 145.861-32.6777 145.861-33.5918 145.861-34.0742 145.893-34.4805 145.956-34.8105 146.02-35.1406 146.102-35.4136 146.204-35.6294 146.305-35.8452 146.439-35.9976 146.604-36.0864 146.769-36.1753 146.953-36.2197 147.156-36.2197L151.917-36.2197 151.917-44.3701C151.917-44.5478 151.961-44.7129 152.05-44.8652 152.139-45.0176 152.304-45.1509 152.545-45.2651 152.786-45.3794 153.11-45.4619 153.516-45.5127 153.923-45.5635 154.43-45.5889 155.04-45.5889 155.674-45.5889 156.195-45.5635 156.601-45.5127 157.007-45.4619 157.325-45.3794 157.553-45.2651 157.782-45.1509 157.947-45.0176 158.048-44.8652 158.15-44.7129 158.201-44.5478 158.201-44.3701L158.201-36.2197 166.999-36.2197C167.202-36.2197 167.38-36.1753 167.532-36.0864 167.684-35.9976 167.818-35.8452 167.932-35.6294 168.046-35.4136 168.129-35.1406 168.179-34.8105 168.23-34.4805 168.256-34.0742 168.256-33.5918 168.256-32.6777 168.141-32.0176 167.913-31.6113 167.684-31.2051 167.38-31.0019 166.999-31.0019L158.201-31.0019 158.201-11.8828C158.201-9.52148 158.55-7.73779 159.248-6.53174 159.946-5.32568 161.197-4.72266 163-4.72266 163.584-4.72266 164.104-4.77978 164.561-4.89404 165.018-5.0083 165.424-5.12891 165.78-5.25586 166.135-5.38281 166.44-5.50342 166.694-5.61768 166.948-5.73193 167.176-5.78906 167.38-5.78906 167.507-5.78906 167.627-5.75732 167.741-5.69385 167.856-5.63037 167.944-5.50977 168.008-5.33203 168.071-5.1543 168.129-4.91309 168.179-4.6084 168.23-4.30371 168.256-3.92285 168.256-3.46582ZM196.567-32.9824C196.567-32.4238 196.554-31.9541 196.529-31.5732 196.503-31.1924 196.452-30.894 196.376-30.6782 196.3-30.4624 196.205-30.2974 196.091-30.1831 195.976-30.0688 195.818-30.0117 195.614-30.0117 195.411-30.0117 195.164-30.0688 194.872-30.1831 194.58-30.2974 194.25-30.4116 193.882-30.5259 193.513-30.6401 193.101-30.748 192.644-30.8496 192.187-30.9512 191.692-31.0019 191.158-31.0019 190.524-31.0019 189.902-30.875 189.292-30.6211 188.683-30.3672 188.042-29.9482 187.369-29.3643 186.696-28.7803 185.991-28.0059 185.255-27.041 184.519-26.0762 183.706-24.8955 182.818-23.499L182.818-0.952148C182.818-0.749023 182.767-0.577637 182.665-0.437988 182.564-0.29834 182.399-0.177734 182.17-0.0761719 181.942 0.0253906 181.624 0.101562 181.218 0.152344 180.812 0.203125 180.291 0.228516 179.656 0.228516 179.047 0.228516 178.539 0.203125 178.133 0.152344 177.727 0.101562 177.403 0.0253906 177.162-0.0761719 176.921-0.177734 176.756-0.29834 176.667-0.437988 176.578-0.577637 176.533-0.749023 176.533-0.952148L176.533-35.2295C176.533-35.4326 176.571-35.604 176.648-35.7436 176.724-35.8833 176.876-36.0103 177.105-36.1245 177.333-36.2388 177.625-36.3149 177.981-36.353 178.336-36.3911 178.806-36.4102 179.39-36.4102 179.948-36.4102 180.412-36.3911 180.78-36.353 181.148-36.3149 181.434-36.2388 181.637-36.1245 181.84-36.0103 181.986-35.8833 182.075-35.7436 182.164-35.604 182.208-35.4326 182.208-35.2295L182.208-30.2402C183.148-31.6113 184.03-32.7285 184.855-33.5918 185.68-34.4551 186.461-35.1343 187.197-35.6294 187.934-36.1245 188.664-36.4673 189.387-36.6577 190.111-36.8481 190.841-36.9434 191.577-36.9434 191.907-36.9434 192.282-36.9243 192.701-36.8862 193.12-36.8481 193.558-36.7783 194.015-36.6768 194.472-36.5752 194.884-36.4609 195.253-36.334 195.621-36.207 195.881-36.0801 196.033-35.9531 196.186-35.8262 196.287-35.7056 196.338-35.5913 196.389-35.477 196.433-35.3311 196.471-35.1533 196.509-34.9756 196.535-34.7153 196.548-34.3726 196.56-34.0298 196.567-33.5664 196.567-32.9824ZM209.974-0.952148C209.974-0.749023 209.923-0.577637 209.821-0.437988 209.72-0.29834 209.555-0.177734 209.326-0.0761719 209.098 0.0253906 208.78 0.101562 208.374 0.152344 207.968 0.203125 207.447 0.228516 206.813 0.228516 206.203 0.228516 205.695 0.203125 205.289 0.152344 204.883 0.101562 204.559 0.0253906 204.318-0.0761719 204.077-0.177734 203.912-0.29834 203.823-0.437988 203.734-0.577637 203.69-0.749023 203.69-0.952148L203.69-35.2295C203.69-35.4072 203.734-35.5723 203.823-35.7246 203.912-35.8769 204.077-36.0039 204.318-36.1055 204.559-36.207 204.883-36.2832 205.289-36.334 205.695-36.3848 206.203-36.4102 206.813-36.4102 207.447-36.4102 207.968-36.3848 208.374-36.334 208.78-36.2832 209.098-36.207 209.326-36.1055 209.555-36.0039 209.72-35.8769 209.821-35.7246 209.923-35.5723 209.974-35.4072 209.974-35.2295ZM210.697-46.8076C210.697-45.335 210.418-44.332 209.86-43.7988 209.301-43.2656 208.273-42.999 206.775-42.999 205.302-42.999 204.293-43.2593 203.747-43.7798 203.201-44.3003 202.928-45.2842 202.928-46.7314 202.928-48.2041 203.207-49.207 203.766-49.7402 204.324-50.2734 205.353-50.54 206.851-50.54 208.323-50.54 209.333-50.2798 209.879-49.7593 210.424-49.2388 210.697-48.2549 210.697-46.8076ZM253.1-18.5478C253.1-15.5771 252.776-12.9048 252.129-10.5308 251.481-8.15674 250.529-6.13184 249.272-4.45605 248.015-2.78027 246.473-1.49805 244.645-0.609375 242.817 0.279297 240.722 0.723633 238.361 0.723633 237.269 0.723633 236.259 0.615723 235.333 0.399902 234.406 0.184082 233.498-0.165039 232.61-0.647461 231.721-1.12988 230.832-1.73926 229.944-2.47559 229.055-3.21191 228.115-4.10059 227.125-5.1416L227.125-0.952148C227.125-0.749023 227.074-0.571289 226.973-0.418945 226.871-0.266602 226.706-0.145996 226.478-0.0571289 226.249 0.0317383 225.964 0.101562 225.621 0.152344 225.278 0.203125 224.84 0.228516 224.307 0.228516 223.799 0.228516 223.367 0.203125 223.012 0.152344 222.656 0.101562 222.364 0.0317383 222.136-0.0571289 221.907-0.145996 221.755-0.266602 221.679-0.418945 221.603-0.571289 221.565-0.749023 221.565-0.952148L221.565-51.835C221.565-52.0381 221.609-52.2158 221.698-52.3682 221.787-52.5205 221.952-52.6475 222.193-52.749 222.434-52.8506 222.758-52.9268 223.164-52.9775 223.57-53.0283 224.078-53.0537 224.688-53.0537 225.322-53.0537 225.843-53.0283 226.249-52.9775 226.655-52.9268 226.973-52.8506 227.201-52.749 227.43-52.6475 227.595-52.5205 227.696-52.3682 227.798-52.2158 227.849-52.0381 227.849-51.835L227.849-31.3066C228.864-32.3477 229.848-33.2236 230.8-33.9346 231.753-34.6455 232.686-35.2231 233.6-35.6675 234.514-36.1118 235.428-36.4355 236.342-36.6387 237.256-36.8418 238.221-36.9434 239.237-36.9434 241.725-36.9434 243.851-36.4482 245.616-35.458 247.381-34.4678 248.815-33.1411 249.92-31.478 251.024-29.8149 251.83-27.8662 252.338-25.6318 252.846-23.3975 253.1-21.0361 253.1-18.5478ZM246.587-17.8242C246.587-19.5762 246.453-21.2773 246.185-22.9277 245.917-24.5781 245.45-26.0381 244.786-27.3076 244.122-28.5771 243.24-29.5991 242.142-30.3735 241.044-31.1479 239.677-31.5352 238.042-31.5352 237.224-31.5352 236.42-31.4209 235.628-31.1924 234.836-30.9639 234.031-30.583 233.214-30.0498 232.396-29.5166 231.546-28.8311 230.665-27.9932 229.784-27.1553 228.845-26.1016 227.849-24.832L227.849-11.1592C229.586-9.05176 231.247-7.4458 232.83-6.34131 234.414-5.23682 236.062-4.68457 237.774-4.68457 239.358-4.68457 240.711-5.06543 241.836-5.82715 242.96-6.58887 243.873-7.59814 244.575-8.85498 245.278-10.1118 245.789-11.521 246.108-13.0825 246.427-14.644 246.587-16.2246 246.587-17.8242ZM291.858-0.952148C291.858-0.749023 291.814-0.577637 291.725-0.437988 291.636-0.29834 291.477-0.177734 291.249-0.0761719 291.02 0.0253906 290.722 0.101562 290.354 0.152344 289.986 0.203125 289.535 0.228516 289.002 0.228516 288.418 0.228516 287.942 0.203125 287.573 0.152344 287.205 0.101562 286.913 0.0253906 286.697-0.0761719 286.482-0.177734 286.336-0.29834 286.259-0.437988 286.183-0.577637 286.145-0.749023 286.145-0.952148L286.145-5.48437C284.19-3.32617 282.26-1.75195 280.356-0.761719 278.452 0.228516 276.522 0.723633 274.567 0.723633 272.282 0.723633 270.359 0.342773 268.797-0.418945 267.236-1.18066 265.972-2.21533 265.007-3.52295 264.043-4.83057 263.351-6.354 262.932-8.09326 262.513-9.83252 262.303-11.9463 262.303-14.4346L262.303-35.2295C262.303-35.4326 262.348-35.604 262.437-35.7436 262.526-35.8833 262.697-36.0103 262.951-36.1245 263.205-36.2388 263.535-36.3149 263.941-36.353 264.347-36.3911 264.855-36.4102 265.465-36.4102 266.074-36.4102 266.582-36.3911 266.988-36.353 267.394-36.3149 267.718-36.2388 267.959-36.1245 268.2-36.0103 268.372-35.8833 268.473-35.7436 268.575-35.604 268.626-35.4326 268.626-35.2295L268.626-15.2725C268.626-13.2666 268.772-11.6606 269.064-10.4546 269.356-9.24853 269.8-8.22021 270.397-7.36963 270.993-6.51904 271.749-5.85889 272.663-5.38916 273.577-4.91943 274.643-4.68457 275.862-4.68457 277.436-4.68457 279.004-5.24316 280.566-6.36035 282.127-7.47754 283.784-9.11523 285.536-11.2734L285.536-35.2295C285.536-35.4326 285.58-35.604 285.669-35.7436 285.758-35.8833 285.929-36.0103 286.183-36.1245 286.437-36.2388 286.761-36.3149 287.154-36.353 287.548-36.3911 288.062-36.4102 288.697-36.4102 289.306-36.4102 289.814-36.3911 290.22-36.353 290.627-36.3149 290.944-36.2388 291.173-36.1245 291.401-36.0103 291.572-35.8833 291.687-35.7436 291.801-35.604 291.858-35.4326 291.858-35.2295ZM321.247-3.46582C321.247-2.72949 321.196-2.14551 321.095-1.71387 320.993-1.28223 320.841-0.964844 320.638-0.761719 320.435-0.558594 320.13-0.368164 319.724-0.19043 319.318-0.0126953 318.854 0.133301 318.334 0.247559 317.813 0.361816 317.261 0.457031 316.677 0.533203 316.093 0.609375 315.509 0.647461 314.925 0.647461 313.148 0.647461 311.624 0.412598 310.355-0.0571289 309.085-0.526855 308.044-1.23779 307.232-2.18994 306.419-3.14209 305.829-4.34814 305.461-5.8081 305.092-7.26807 304.908-8.98828 304.908-10.9687L304.908-31.0019 300.109-31.0019C299.729-31.0019 299.424-31.2051 299.195-31.6113 298.967-32.0176 298.853-32.6777 298.853-33.5918 298.853-34.0742 298.884-34.4805 298.948-34.8105 299.011-35.1406 299.094-35.4136 299.195-35.6294 299.297-35.8452 299.43-35.9976 299.595-36.0864 299.76-36.1753 299.944-36.2197 300.148-36.2197L304.908-36.2197 304.908-44.3701C304.908-44.5478 304.953-44.7129 305.042-44.8652 305.13-45.0176 305.296-45.1509 305.537-45.2651 305.778-45.3794 306.102-45.4619 306.508-45.5127 306.914-45.5635 307.422-45.5889 308.031-45.5889 308.666-45.5889 309.187-45.5635 309.593-45.5127 309.999-45.4619 310.317-45.3794 310.545-45.2651 310.774-45.1509 310.939-45.0176 311.04-44.8652 311.142-44.7129 311.193-44.5478 311.193-44.3701L311.193-36.2197 319.99-36.2197C320.193-36.2197 320.371-36.1753 320.524-36.0864 320.676-35.9976 320.809-35.8452 320.923-35.6294 321.038-35.4136 321.12-35.1406 321.171-34.8105 321.222-34.4805 321.247-34.0742 321.247-33.5918 321.247-32.6777 321.133-32.0176 320.904-31.6113 320.676-31.2051 320.371-31.0019 319.99-31.0019L311.193-31.0019 311.193-11.8828C311.193-9.52148 311.542-7.73779 312.24-6.53174 312.938-5.32568 314.189-4.72266 315.991-4.72266 316.575-4.72266 317.096-4.77978 317.553-4.89404 318.01-5.0083 318.416-5.12891 318.772-5.25586 319.127-5.38281 319.432-5.50342 319.686-5.61768 319.94-5.73193 320.168-5.78906 320.371-5.78906 320.498-5.78906 320.619-5.75732 320.733-5.69385 320.847-5.63037 320.936-5.50977 321-5.33203 321.063-5.1543 321.12-4.91309 321.171-4.6084 321.222-4.30371 321.247-3.92285 321.247-3.46582ZM357.927-19.5762C357.927-18.5859 357.678-17.8813 357.181-17.4624 356.684-17.0435 356.116-16.834 355.478-16.834L332.905-16.834C332.905-14.9297 333.096-13.2158 333.479-11.6924 333.861-10.1689 334.499-8.86133 335.392-7.76953 336.285-6.67773 337.446-5.83984 338.875-5.25586 340.304-4.67187 342.051-4.37988 344.118-4.37988 345.751-4.37988 347.205-4.51318 348.481-4.77978 349.757-5.04639 350.86-5.34473 351.791-5.6748 352.723-6.00488 353.488-6.30322 354.088-6.56982 354.688-6.83643 355.141-6.96973 355.447-6.96973 355.625-6.96973 355.785-6.92529 355.925-6.83643 356.065-6.74756 356.174-6.61426 356.25-6.43652 356.327-6.25879 356.384-6.01123 356.422-5.69385 356.461-5.37646 356.48-4.98926 356.48-4.53223 356.48-4.20215 356.467-3.9165 356.442-3.67529 356.416-3.43408 356.385-3.21826 356.347-3.02783 356.308-2.8374 356.245-2.66602 356.156-2.51367 356.067-2.36133 355.953-2.21533 355.813-2.07568 355.674-1.93603 355.261-1.70752 354.576-1.39014 353.89-1.07275 353.001-0.761719 351.91-0.457031 350.818-0.152344 349.555 0.120605 348.12 0.361816 346.685 0.603027 345.156 0.723633 343.531 0.723633 340.712 0.723633 338.243 0.330078 336.123-0.457031 334.003-1.24414 332.219-2.41211 330.772-3.96094 329.325-5.50977 328.233-7.45215 327.496-9.78808 326.76-12.124 326.392-14.8408 326.392-17.9385 326.392-20.8838 326.773-23.5308 327.535-25.8794 328.296-28.228 329.394-30.2212 330.829-31.8589 332.264-33.4966 333.996-34.7534 336.028-35.6294 338.059-36.5054 340.331-36.9434 342.845-36.9434 345.536-36.9434 347.828-36.5117 349.72-35.6484 351.611-34.7852 353.166-33.6235 354.385-32.1636 355.604-30.7036 356.499-28.9897 357.07-27.022 357.641-25.0542 357.927-22.9531 357.927-20.7187ZM351.605-21.4424C351.681-24.7432 350.946-27.333 349.401-29.2119 347.856-31.0908 345.563-32.0303 342.523-32.0303 340.965-32.0303 339.598-31.7383 338.423-31.1543 337.248-30.5703 336.264-29.7959 335.472-28.8311 334.68-27.8662 334.067-26.7427 333.633-25.4604 333.199-24.1782 332.956-22.8389 332.905-21.4424Z" fill="#FFFFFF" transform="matrix(1 0 0 1 69.0815 120)"/></g></g><rect x="2516" y="1505" width="386" height="193" fill="url(#fill23)"/><text fill="#FFFFFF" font-family="Calibri,Calibri_MSFontService,sans-serif" font-weight="400" font-size="78" transform="matrix(1 0 0 1 2528.08 1624)">AFAttribute</text><g clip-path="url(#clip24)" filter="url(#fx6)" transform="translate(2494 1764)"><g clip-path="url(#clip25)"><rect x="22" y="21.8749" width="386" height="193" fill="#FF0000"/></g></g><g clip-path="url(#clip26)" filter="url(#fx7)" transform="translate(2474 1785)"><g clip-path="url(#clip27)"><path d="M43.4561-2.32324C43.6592-1.76465 43.7671-1.31396 43.7798-0.971191 43.7925-0.628418 43.6973-0.368164 43.4941-0.19043 43.291-0.0126953 42.9546 0.101562 42.4849 0.152344 42.0151 0.203125 41.3867 0.228516 40.5996 0.228516 39.8125 0.228516 39.1841 0.209473 38.7144 0.171387 38.2446 0.133301 37.8892 0.0698242 37.6479-0.019043 37.4067-0.10791 37.229-0.228516 37.1147-0.380859 37.0005-0.533203 36.8926-0.723633 36.791-0.952148L32.5635-12.9492 12.0732-12.9492 8.03613-1.10449C7.95996-0.875976 7.8584-0.679199 7.73144-0.51416 7.60449-0.349121 7.42041-0.209473 7.1792-0.0952148 6.93799 0.019043 6.59521 0.101562 6.15088 0.152344 5.70654 0.203125 5.12891 0.228516 4.41797 0.228516 3.68164 0.228516 3.07861 0.196777 2.60889 0.133301 2.13916 0.0698242 1.80908-0.0507812 1.61865-0.228516 1.42822-0.40625 1.33936-0.666504 1.35205-1.00928 1.36475-1.35205 1.47266-1.80273 1.67578-2.36133L18.2051-48.1406C18.3066-48.4199 18.4399-48.6484 18.605-48.8262 18.77-49.0039 19.0112-49.1436 19.3286-49.2451 19.646-49.3467 20.0522-49.4165 20.5474-49.4546 21.0425-49.4927 21.6709-49.5117 22.4326-49.5117 23.2451-49.5117 23.918-49.4927 24.4512-49.4546 24.9844-49.4165 25.416-49.3467 25.7461-49.2451 26.0762-49.1436 26.3301-48.9976 26.5078-48.8071 26.6855-48.6167 26.8252-48.3818 26.9268-48.1025ZM22.2422-42.7324 22.2041-42.7324 13.7109-18.167 30.8496-18.167ZM77.5263-46.4648C77.5263-45.9824 77.5009-45.5635 77.4501-45.208 77.3993-44.8525 77.3105-44.5669 77.1835-44.3511 77.0566-44.1353 76.9106-43.9766 76.7455-43.875 76.5805-43.7734 76.4091-43.7227 76.2314-43.7227L58.1786-43.7227 58.1786-26.9648 75.2411-26.9648C75.4189-26.9648 75.5903-26.9204 75.7553-26.8315 75.9203-26.7427 76.0663-26.5967 76.1933-26.3936 76.3202-26.1904 76.4091-25.9175 76.4599-25.5747 76.5107-25.2319 76.5361-24.7939 76.5361-24.2607 76.5361-23.7783 76.5107-23.3657 76.4599-23.0229 76.4091-22.6802 76.3202-22.4009 76.1933-22.1851 76.0663-21.9692 75.9203-21.8042 75.7553-21.6899 75.5903-21.5757 75.4189-21.5186 75.2411-21.5186L58.1786-21.5186 58.1786-0.990234C58.1786-0.8125 58.1279-0.641113 58.0263-0.476074 57.9247-0.311035 57.747-0.184082 57.4931-0.0952148 57.2392-0.00634766 56.9091 0.0698242 56.5029 0.133301 56.0966 0.196777 55.5634 0.228516 54.9033 0.228516 54.2939 0.228516 53.7734 0.196777 53.3417 0.133301 52.9101 0.0698242 52.5673-0.00634766 52.3134-0.0952148 52.0595-0.184082 51.8818-0.311035 51.7802-0.476074 51.6786-0.641113 51.6279-0.8125 51.6279-0.990234L51.6279-46.6172C51.6279-47.6074 51.8881-48.2993 52.4086-48.6929 52.9291-49.0864 53.4814-49.2832 54.0654-49.2832L76.2314-49.2832C76.4091-49.2832 76.5805-49.2324 76.7455-49.1309 76.9106-49.0293 77.0566-48.8643 77.1835-48.6357 77.3105-48.4072 77.3993-48.1089 77.4501-47.7407 77.5009-47.3726 77.5263-46.9473 77.5263-46.4648ZM119.952-2.32324C120.155-1.76465 120.263-1.31396 120.276-0.971191 120.288-0.628418 120.193-0.368164 119.99-0.19043 119.787-0.0126953 119.45 0.101562 118.981 0.152344 118.511 0.203125 117.883 0.228516 117.095 0.228516 116.308 0.228516 115.68 0.209473 115.21 0.171387 114.74 0.133301 114.385 0.0698242 114.144-0.019043 113.903-0.10791 113.725-0.228516 113.611-0.380859 113.496-0.533203 113.388-0.723633 113.287-0.952148L109.059-12.9492 88.5691-12.9492 84.532-1.10449C84.4558-0.875976 84.3542-0.679199 84.2273-0.51416 84.1003-0.349121 83.9162-0.209473 83.675-0.0952148 83.4338 0.019043 83.091 0.101562 82.6467 0.152344 82.2024 0.203125 81.6247 0.228516 80.9138 0.228516 80.1775 0.228516 79.5744 0.196777 79.1047 0.133301 78.635 0.0698242 78.3049-0.0507812 78.1145-0.228516 77.924-0.40625 77.8352-0.666504 77.8479-1.00928 77.8606-1.35205 77.9685-1.80273 78.1716-2.36133L94.7009-48.1406C94.8025-48.4199 94.9358-48.6484 95.1008-48.8262 95.2658-49.0039 95.5071-49.1436 95.8244-49.2451 96.1418-49.3467 96.5481-49.4165 97.0432-49.4546 97.5383-49.4927 98.1667-49.5117 98.9284-49.5117 99.7409-49.5117 100.414-49.4927 100.947-49.4546 101.48-49.4165 101.912-49.3467 102.242-49.2451 102.572-49.1436 102.826-48.9976 103.004-48.8071 103.181-48.6167 103.321-48.3818 103.423-48.1025ZM98.738-42.7324 98.6999-42.7324 90.2068-18.167 107.345-18.167ZM156.917-0.952148C156.917-0.749023 156.866-0.577637 156.764-0.437988 156.663-0.29834 156.498-0.177734 156.269-0.0761719 156.041 0.0253906 155.723 0.101562 155.317 0.152344 154.911 0.203125 154.403 0.228516 153.794 0.228516 153.159 0.228516 152.638 0.203125 152.232 0.152344 151.826 0.101562 151.508 0.0253906 151.28-0.0761719 151.051-0.177734 150.886-0.29834 150.785-0.437988 150.683-0.577637 150.632-0.749023 150.632-0.952148L150.632-21.0234C150.632-22.9785 150.48-24.5527 150.175-25.7461 149.871-26.9395 149.426-27.9678 148.842-28.8311 148.258-29.6943 147.503-30.3545 146.576-30.8115 145.65-31.2686 144.577-31.4971 143.358-31.4971 141.784-31.4971 140.21-30.9385 138.635-29.8213 137.061-28.7041 135.411-27.0664 133.684-24.9082L133.684-0.952148C133.684-0.749023 133.633-0.577637 133.532-0.437988 133.43-0.29834 133.265-0.177734 133.037-0.0761719 132.808 0.0253906 132.491 0.101562 132.085 0.152344 131.678 0.203125 131.158 0.228516 130.523 0.228516 129.914 0.228516 129.406 0.203125 129 0.152344 128.593 0.101562 128.27 0.0253906 128.028-0.0761719 127.787-0.177734 127.622-0.29834 127.533-0.437988 127.444-0.577637 127.4-0.749023 127.4-0.952148L127.4-35.2295C127.4-35.4326 127.438-35.604 127.514-35.7436 127.59-35.8833 127.743-36.0103 127.971-36.1245 128.2-36.2388 128.492-36.3149 128.847-36.353 129.203-36.3911 129.673-36.4102 130.257-36.4102 130.815-36.4102 131.278-36.3911 131.647-36.353 132.015-36.3149 132.3-36.2388 132.504-36.1245 132.707-36.0103 132.853-35.8833 132.942-35.7436 133.03-35.604 133.075-35.4326 133.075-35.2295L133.075-30.6973C135.005-32.8555 136.928-34.436 138.845-35.439 140.762-36.4419 142.698-36.9434 144.653-36.9434 146.938-36.9434 148.861-36.5561 150.423-35.7817 151.985-35.0073 153.248-33.9727 154.213-32.6777 155.177-31.3828 155.869-29.8657 156.288-28.1265 156.707-26.3872 156.917-24.2988 156.917-21.8613ZM194.151-0.914062C194.151-0.609375 194.05-0.380859 193.847-0.228516 193.644-0.0761719 193.364 0.0380859 193.009 0.114258 192.653 0.19043 192.133 0.228516 191.447 0.228516 190.787 0.228516 190.26 0.19043 189.867 0.114258 189.473 0.0380859 189.188-0.0761719 189.01-0.228516 188.832-0.380859 188.743-0.609375 188.743-0.914062L188.743-4.3418C187.245-2.74219 185.576-1.49805 183.735-0.609375 181.894 0.279297 179.945 0.723633 177.889 0.723633 176.086 0.723633 174.455 0.488769 172.995 0.019043 171.535-0.450684 170.291-1.12988 169.262-2.01855 168.234-2.90723 167.434-3.99902 166.863-5.29394 166.292-6.58887 166.006-8.06152 166.006-9.71191 166.006-11.6416 166.4-13.3174 167.187-14.7393 167.974-16.1611 169.104-17.3418 170.576-18.2812 172.049-19.2207 173.852-19.9253 175.984-20.395 178.117-20.8647 180.517-21.0996 183.183-21.0996L187.905-21.0996 187.905-23.7656C187.905-25.0859 187.766-26.2539 187.486-27.2695 187.207-28.2852 186.756-29.1294 186.134-29.8022 185.512-30.4751 184.706-30.9829 183.716-31.3257 182.726-31.6685 181.507-31.8398 180.06-31.8398 178.511-31.8398 177.121-31.6558 175.889-31.2876 174.658-30.9194 173.579-30.5132 172.652-30.0688 171.725-29.6245 170.951-29.2183 170.329-28.8501 169.707-28.4819 169.243-28.2978 168.939-28.2978 168.735-28.2978 168.558-28.3486 168.405-28.4502 168.253-28.5518 168.12-28.7041 168.005-28.9072 167.891-29.1103 167.809-29.3706 167.758-29.688 167.707-30.0054 167.682-30.3545 167.682-30.7353 167.682-31.3701 167.726-31.8716 167.815-32.2397 167.904-32.6079 168.12-32.957 168.463-33.2871 168.805-33.6172 169.396-34.0044 170.234-34.4487 171.071-34.8931 172.036-35.2993 173.128-35.6675 174.22-36.0356 175.413-36.3403 176.708-36.5815 178.003-36.8228 179.311-36.9434 180.631-36.9434 183.094-36.9434 185.189-36.6641 186.915-36.1055 188.642-35.5469 190.038-34.728 191.105-33.6489 192.171-32.5698 192.945-31.2305 193.428-29.6309 193.91-28.0312 194.151-26.165 194.151-24.0322ZM187.905-16.5674 182.535-16.5674C180.809-16.5674 179.311-16.4214 178.041-16.1294 176.772-15.8374 175.718-15.4058 174.88-14.8345 174.042-14.2632 173.426-13.5776 173.033-12.7778 172.639-11.978 172.443-11.0576 172.443-10.0166 172.443-8.23926 173.007-6.82373 174.137-5.77002 175.267-4.71631 176.848-4.18945 178.879-4.18945 180.529-4.18945 182.059-4.6084 183.468-5.44629 184.878-6.28418 186.357-7.56641 187.905-9.29297ZM211.945-0.952148C211.945-0.749023 211.894-0.577637 211.792-0.437988 211.691-0.29834 211.526-0.177734 211.297-0.0761719 211.069 0.0253906 210.751 0.101562 210.345 0.152344 209.939 0.203125 209.418 0.228516 208.784 0.228516 208.174 0.228516 207.666 0.203125 207.26 0.152344 206.854 0.101562 206.53 0.0253906 206.289-0.0761719 206.048-0.177734 205.883-0.29834 205.794-0.437988 205.705-0.577637 205.66-0.749023 205.66-0.952148L205.66-51.835C205.66-52.0381 205.705-52.2158 205.794-52.3682 205.883-52.5205 206.048-52.6475 206.289-52.749 206.53-52.8506 206.854-52.9268 207.26-52.9775 207.666-53.0283 208.174-53.0537 208.784-53.0537 209.418-53.0537 209.939-53.0283 210.345-52.9775 210.751-52.9268 211.069-52.8506 211.297-52.749 211.526-52.6475 211.691-52.5205 211.792-52.3682 211.894-52.2158 211.945-52.0381 211.945-51.835ZM239.151 0 234.58 12.6064C234.428 13.0127 234.041 13.3237 233.419 13.5395 232.797 13.7554 231.851 13.8633 230.581 13.8633 229.921 13.8633 229.388 13.8315 228.982 13.7681 228.576 13.7046 228.264 13.5967 228.049 13.4443 227.833 13.292 227.712 13.0889 227.687 12.835 227.661 12.5811 227.725 12.2764 227.877 11.9209L232.6 0C232.371-0.101562 232.156-0.266602 231.952-0.495117 231.749-0.723633 231.61-0.964844 231.534-1.21875L219.308-33.9727C219.105-34.5059 219.003-34.9248 219.003-35.2295 219.003-35.5342 219.105-35.7754 219.308-35.9531 219.511-36.1309 219.841-36.2515 220.298-36.3149 220.755-36.3784 221.365-36.4102 222.126-36.4102 222.888-36.4102 223.485-36.3911 223.916-36.353 224.348-36.3149 224.691-36.2451 224.945-36.1436 225.199-36.042 225.383-35.896 225.497-35.7056 225.611-35.5151 225.732-35.2549 225.859-34.9248L235.647-7.42676 235.761-7.42676 245.206-35.0771C245.359-35.5596 245.543-35.8706 245.759-36.0103 245.974-36.1499 246.298-36.2515 246.73-36.3149 247.161-36.3784 247.784-36.4102 248.596-36.4102 249.307-36.4102 249.891-36.3784 250.348-36.3149 250.805-36.2515 251.141-36.1309 251.357-35.9531 251.573-35.7754 251.681-35.5342 251.681-35.2295 251.681-34.9248 251.605-34.5439 251.452-34.0869ZM279.589-10.2832C279.589-8.53125 279.266-6.96973 278.618-5.59863 277.971-4.22754 277.05-3.07227 275.857-2.13281 274.664-1.19336 273.242-0.482422 271.591 0 269.941 0.482422 268.126 0.723633 266.145 0.723633 264.926 0.723633 263.765 0.628418 262.66 0.437988 261.556 0.247559 260.565 0.00634765 259.69-0.285645 258.814-0.577637 258.071-0.882324 257.461-1.19971 256.852-1.51709 256.408-1.80273 256.128-2.05664 255.849-2.31055 255.646-2.66602 255.519-3.12305 255.392-3.58008 255.329-4.20215 255.329-4.98926 255.329-5.47168 255.354-5.87793 255.405-6.20801 255.456-6.53809 255.519-6.80469 255.595-7.00781 255.671-7.21094 255.779-7.35693 255.919-7.4458 256.059-7.53467 256.217-7.5791 256.395-7.5791 256.674-7.5791 257.087-7.40771 257.633-7.06494 258.179-6.72217 258.852-6.34766 259.651-5.94141 260.451-5.53516 261.397-5.16064 262.489-4.81787 263.581-4.4751 264.837-4.30371 266.259-4.30371 267.326-4.30371 268.291-4.41797 269.154-4.64648 270.017-4.875 270.766-5.21143 271.401-5.65576 272.036-6.1001 272.524-6.66504 272.867-7.35058 273.21-8.03613 273.381-8.84863 273.381-9.78808 273.381-10.7529 273.134-11.5654 272.639-12.2256 272.144-12.8857 271.49-13.4697 270.677-13.9775 269.865-14.4853 268.951-14.936 267.935-15.3296 266.919-15.7231 265.872-16.1357 264.793-16.5674 263.714-16.999 262.66-17.4878 261.632-18.0337 260.604-18.5796 259.683-19.2461 258.871-20.0332 258.058-20.8203 257.404-21.7598 256.909-22.8516 256.414-23.9434 256.167-25.251 256.167-26.7744 256.167-28.1201 256.427-29.4087 256.947-30.6401 257.468-31.8716 258.249-32.9507 259.29-33.8774 260.331-34.8042 261.632-35.5469 263.193-36.1055 264.755-36.6641 266.577-36.9434 268.659-36.9434 269.573-36.9434 270.487-36.8672 271.401-36.7148 272.315-36.5625 273.14-36.3721 273.877-36.1436 274.613-35.915 275.241-35.6675 275.762-35.4009 276.282-35.1343 276.676-34.8994 276.942-34.6963 277.209-34.4932 277.387-34.3154 277.476-34.1631 277.565-34.0107 277.628-33.8394 277.666-33.6489 277.704-33.4585 277.742-33.2236 277.78-32.9443 277.818-32.665 277.837-32.3223 277.837-31.916 277.837-31.4844 277.818-31.1099 277.78-30.7925 277.742-30.4751 277.679-30.2148 277.59-30.0117 277.501-29.8086 277.393-29.6626 277.266-29.5737 277.139-29.4849 277-29.4404 276.847-29.4404 276.619-29.4404 276.289-29.5801 275.857-29.8594 275.425-30.1387 274.867-30.437 274.181-30.7544 273.496-31.0718 272.69-31.3701 271.763-31.6494 270.836-31.9287 269.776-32.0684 268.583-32.0684 267.516-32.0684 266.577-31.9478 265.764-31.7065 264.952-31.4653 264.285-31.1226 263.765-30.6782 263.244-30.2339 262.851-29.707 262.584-29.0977 262.317-28.4883 262.184-27.8281 262.184-27.1172 262.184-26.127 262.438-25.2954 262.946-24.6226 263.454-23.9497 264.114-23.3594 264.926-22.8516 265.739-22.3437 266.666-21.8867 267.707-21.4805 268.748-21.0742 269.808-20.6553 270.887-20.2236 271.966-19.792 273.032-19.3096 274.086-18.7764 275.14-18.2432 276.073-17.5957 276.885-16.834 277.698-16.0723 278.352-15.1582 278.847-14.0918 279.342-13.0254 279.589-11.7559 279.589-10.2832ZM294.834-0.952148C294.834-0.749023 294.783-0.577637 294.682-0.437988 294.58-0.29834 294.415-0.177734 294.187-0.0761719 293.958 0.0253906 293.641 0.101562 293.235 0.152344 292.828 0.203125 292.308 0.228516 291.673 0.228516 291.064 0.228516 290.556 0.203125 290.15 0.152344 289.743 0.101562 289.42 0.0253906 289.178-0.0761719 288.937-0.177734 288.772-0.29834 288.683-0.437988 288.594-0.577637 288.55-0.749023 288.55-0.952148L288.55-35.2295C288.55-35.4072 288.594-35.5723 288.683-35.7246 288.772-35.8769 288.937-36.0039 289.178-36.1055 289.42-36.207 289.743-36.2832 290.15-36.334 290.556-36.3848 291.064-36.4102 291.673-36.4102 292.308-36.4102 292.828-36.3848 293.235-36.334 293.641-36.2832 293.958-36.207 294.187-36.1055 294.415-36.0039 294.58-35.8769 294.682-35.7246 294.783-35.5723 294.834-35.4072 294.834-35.2295ZM295.558-46.8076C295.558-45.335 295.279-44.332 294.72-43.7988 294.161-43.2656 293.133-42.999 291.635-42.999 290.162-42.999 289.153-43.2593 288.607-43.7798 288.061-44.3003 287.788-45.2842 287.788-46.7314 287.788-48.2041 288.068-49.207 288.626-49.7402 289.185-50.2734 290.213-50.54 291.711-50.54 293.184-50.54 294.193-50.2798 294.739-49.7593 295.285-49.2388 295.558-48.2549 295.558-46.8076ZM327.944-10.2832C327.944-8.53125 327.62-6.96973 326.972-5.59863 326.325-4.22754 325.405-3.07227 324.211-2.13281 323.018-1.19336 321.596-0.482422 319.946 0 318.295 0.482422 316.48 0.723633 314.499 0.723633 313.281 0.723633 312.119 0.628418 311.014 0.437988 309.91 0.247559 308.92 0.00634765 308.044-0.285645 307.168-0.577637 306.425-0.882324 305.816-1.19971 305.206-1.51709 304.762-1.80273 304.483-2.05664 304.203-2.31055 304-2.66602 303.873-3.12305 303.746-3.58008 303.683-4.20215 303.683-4.98926 303.683-5.47168 303.708-5.87793 303.759-6.20801 303.81-6.53809 303.873-6.80469 303.949-7.00781 304.026-7.21094 304.134-7.35693 304.273-7.4458 304.413-7.53467 304.572-7.5791 304.749-7.5791 305.029-7.5791 305.441-7.40771 305.987-7.06494 306.533-6.72217 307.206-6.34766 308.006-5.94141 308.805-5.53516 309.751-5.16064 310.843-4.81787 311.935-4.4751 313.192-4.30371 314.614-4.30371 315.68-4.30371 316.645-4.41797 317.508-4.64648 318.371-4.875 319.12-5.21143 319.755-5.65576 320.39-6.1001 320.879-6.66504 321.221-7.35058 321.564-8.03613 321.736-8.84863 321.736-9.78808 321.736-10.7529 321.488-11.5654 320.993-12.2256 320.498-12.8857 319.844-13.4697 319.031-13.9775 318.219-14.4853 317.305-14.936 316.289-15.3296 315.274-15.7231 314.226-16.1357 313.147-16.5674 312.068-16.999 311.014-17.4878 309.986-18.0337 308.958-18.5796 308.037-19.2461 307.225-20.0332 306.412-20.8203 305.759-21.7598 305.263-22.8516 304.768-23.9434 304.521-25.251 304.521-26.7744 304.521-28.1201 304.781-29.4087 305.302-30.6401 305.822-31.8716 306.603-32.9507 307.644-33.8774 308.685-34.8042 309.986-35.5469 311.548-36.1055 313.109-36.6641 314.931-36.9434 317.013-36.9434 317.927-36.9434 318.841-36.8672 319.755-36.7148 320.669-36.5625 321.494-36.3721 322.231-36.1436 322.967-35.915 323.595-35.6675 324.116-35.4009 324.636-35.1343 325.03-34.8994 325.297-34.6963 325.563-34.4932 325.741-34.3154 325.83-34.1631 325.919-34.0107 325.982-33.8394 326.02-33.6489 326.058-33.4585 326.096-33.2236 326.135-32.9443 326.173-32.665 326.192-32.3223 326.192-31.916 326.192-31.4844 326.173-31.1099 326.135-30.7925 326.096-30.4751 326.033-30.2148 325.944-30.0117 325.855-29.8086 325.747-29.6626 325.62-29.5737 325.493-29.4849 325.354-29.4404 325.201-29.4404 324.973-29.4404 324.643-29.5801 324.211-29.8594 323.78-30.1387 323.221-30.437 322.535-30.7544 321.85-31.0718 321.044-31.3701 320.117-31.6494 319.19-31.9287 318.13-32.0684 316.937-32.0684 315.87-32.0684 314.931-31.9478 314.118-31.7065 313.306-31.4653 312.639-31.1226 312.119-30.6782 311.598-30.2339 311.205-29.707 310.938-29.0977 310.672-28.4883 310.538-27.8281 310.538-27.1172 310.538-26.127 310.792-25.2954 311.3-24.6226 311.808-23.9497 312.468-23.3594 313.281-22.8516 314.093-22.3437 315.02-21.8867 316.061-21.4805 317.102-21.0742 318.162-20.6553 319.241-20.2236 320.32-19.792 321.386-19.3096 322.44-18.7764 323.494-18.2432 324.427-17.5957 325.24-16.834 326.052-16.0723 326.706-15.1582 327.201-14.0918 327.696-13.0254 327.944-11.7559 327.944-10.2832Z" fill="#FFFFFF" transform="matrix(1 0 0 1 69.3555 120)"/></g></g><rect x="2516" y="1779" width="386" height="193" fill="url(#fill28)"/><text fill="#FFFFFF" font-family="Calibri,Calibri_MSFontService,sans-serif" font-weight="400" font-size="78" transform="matrix(1 0 0 1 2543.36 1898)">AFAnalysis</text></g></svg>